<?xml version="1.0" encoding="UTF-8" standalone="no"?>
<svg
   width="24"
   height="24"
   version="1.1"
   id="svg7"
   sodipodi:docname="1password-panel-locked.svg"
   inkscape:version="1.2.1 (9c6d41e410, 2022-07-14)"
   xmlns:inkscape="http://www.inkscape.org/namespaces/inkscape"
   xmlns:sodipodi="http://sodipodi.sourceforge.net/DTD/sodipodi-0.dtd"
   xmlns="http://www.w3.org/2000/svg"
   xmlns:svg="http://www.w3.org/2000/svg">
  <sodipodi:namedview
     id="namedview9"
     pagecolor="#ffffff"
     bordercolor="#000000"
     borderopacity="0.25"
     inkscape:showpageshadow="2"
     inkscape:pageopacity="0.0"
     inkscape:pagecheckerboard="0"
     inkscape:deskcolor="#d1d1d1"
     showgrid="false"
     inkscape:zoom="42.791667"
     inkscape:cx="11.988315"
     inkscape:cy="12.023369"
     inkscape:current-layer="svg7" />
  <defs
     id="defs3">
    <style
       id="current-color-scheme"
       type="text/css">
   .ColorScheme-Text { color:#dfdfdf; } .ColorScheme-Highlight { color:#4285f4; } .ColorScheme-NeutralText { color:#ff9800; } .ColorScheme-PositiveText { color:#4caf50; } .ColorScheme-NegativeText { color:#f44336; }
  </style>
  </defs>
  <path
     style="fill:currentColor;stroke-width:1.35294"
     class="ColorScheme-Text"
     d="M 11.323529,0.5 A 10.823529,10.823529 0 0 0 0.5,11.323529 a 10.823529,10.823529 0 0 0 10.823529,10.82353 10.823529,10.823529 0 0 0 2.705883,-0.34352 v -2.827436 a 8.1176471,8.1176471 0 0 1 -2.705883,0.465073 8.1176471,8.1176471 0 0 1 -8.1176466,-8.117647 8.1176471,8.1176471 0 0 1 8.1176466,-8.1176466 8.1176471,8.1176471 0 0 1 8.117647,8.1176466 8.1176471,8.1176471 0 0 1 -0.116271,1.366154 c 0.0396,-0.0012 0.07639,-0.01321 0.116271,-0.01321 0.938202,0 1.786902,0.341882 2.470704,0.887867 A 10.823529,10.823529 0 0 0 22.147059,11.323529 10.823529,10.823529 0 0 0 11.323529,0.5 Z M 9.52137,4.5588235 c -0.499687,0 -0.903723,0.3340543 -0.903723,0.7504596 V 8.356044 c 0,0 1.352941,0.716359 1.352941,1.199677 0,0.483314 -1.352941,1.199679 -1.352941,1.199679 v 6.582375 c 0,0.416408 0.404034,0.75046 0.903723,0.75046 h 3.604319 c 0.499687,0 0.903723,-0.334031 0.903723,-0.75046 v -0.602481 -2.433708 l -0.01055,-0.01326 c -7e-6,0 -1.342204,-0.743159 -1.342372,-1.247243 -1.63e-4,-0.504558 1.342369,-1.252527 1.342372,-1.252527 l 0.01055,-0.01052 V 5.3092831 c 0,-0.4164053 -0.404036,-0.7504596 -0.903723,-0.7504596 z m 9.919806,9.4705885 c -1.499058,0 -2.705882,1.232394 -2.705882,2.748162 v 1.310661 H 15.382353 V 23.5 H 23.5 v -5.411765 h -1.352941 v -1.310661 c 0,-1.515159 -1.206824,-2.748162 -2.705883,-2.748162 z m 0,1.352941 c 0.74953,0 1.352942,0.598541 1.352942,1.352941 v 1.352941 h -2.705883 v -1.352941 c 0,-0.7544 0.603412,-1.352941 1.352941,-1.352941 z"
     id="path5" />
</svg>
