<?xml version="1.0" encoding="UTF-8" standalone="no"?>
<svg
   width="24"
   height="24"
   version="1.1"
   id="svg7"
   sodipodi:docname="1password-panel.svg"
   inkscape:version="1.2.1 (9c6d41e410, 2022-07-14)"
   xmlns:inkscape="http://www.inkscape.org/namespaces/inkscape"
   xmlns:sodipodi="http://sodipodi.sourceforge.net/DTD/sodipodi-0.dtd"
   xmlns="http://www.w3.org/2000/svg"
   xmlns:svg="http://www.w3.org/2000/svg">
  <sodipodi:namedview
     id="namedview9"
     pagecolor="#ffffff"
     bordercolor="#000000"
     borderopacity="0.25"
     inkscape:showpageshadow="2"
     inkscape:pageopacity="0.0"
     inkscape:pagecheckerboard="0"
     inkscape:deskcolor="#d1d1d1"
     showgrid="false"
     inkscape:zoom="42.791667"
     inkscape:cx="11.988315"
     inkscape:cy="12.023369"
     inkscape:current-layer="svg7" />
  <defs
     id="defs3">
    <style
       id="current-color-scheme"
       type="text/css">
   .ColorScheme-Text { color:#dfdfdf; } .ColorScheme-Highlight { color:#4285f4; } .ColorScheme-NeutralText { color:#ff9800; } .ColorScheme-PositiveText { color:#4caf50; } .ColorScheme-NegativeText { color:#f44336; }
  </style>
  </defs>
  <path
     style="fill:currentColor;stroke-width:1.4375"
     class="ColorScheme-Text"
     d="M 12,0.5 A 11.5,11.5 0 0 0 0.5,12 11.5,11.5 0 0 0 12,23.5 11.5,11.5 0 0 0 23.5,12 11.5,11.5 0 0 0 12,0.5 Z m 0,2.875 A 8.625,8.625 0 0 1 20.625,12 8.625,8.625 0 0 1 12,20.625 8.625,8.625 0 0 1 3.375,12 8.625,8.625 0 0 1 12,3.375 Z M 10.085205,4.8125 C 9.554288,4.8125 9.125,5.1674327 9.125,5.6098633 V 8.847046 c 0,0 1.4375,0.761132 1.4375,1.274658 0,0.513521 -1.4375,1.274658 -1.4375,1.274658 v 6.993774 c 0,0.442431 0.429286,0.797364 0.960205,0.797364 h 3.82959 c 0.530917,0 0.960205,-0.35491 0.960205,-0.797364 v -3.225951 l -0.01121,-0.01409 c -5e-6,0 -1.426092,-0.789606 -1.42627,-1.325195 -1.72e-4,-0.536093 1.42627,-1.33081 1.42627,-1.33081 L 14.875,12.482911 V 5.6098633 C 14.875,5.1674327 14.445712,4.8125 13.914795,4.8125 Z"
     id="path5" />
</svg>
