<?xml version="1.0" encoding="UTF-8" standalone="no"?>
<svg
   width="24"
   height="24"
   version="1.1"
   id="svg7"
   sodipodi:docname="5g.svg"
   inkscape:version="1.2.1 (9c6d41e410, 2022-07-14)"
   xmlns:inkscape="http://www.inkscape.org/namespaces/inkscape"
   xmlns:sodipodi="http://sodipodi.sourceforge.net/DTD/sodipodi-0.dtd"
   xmlns="http://www.w3.org/2000/svg"
   xmlns:svg="http://www.w3.org/2000/svg">
  <sodipodi:namedview
     id="namedview9"
     pagecolor="#ffffff"
     bordercolor="#000000"
     borderopacity="0.25"
     inkscape:showpageshadow="2"
     inkscape:pageopacity="0.0"
     inkscape:pagecheckerboard="0"
     inkscape:deskcolor="#d1d1d1"
     showgrid="false"
     inkscape:zoom="42.791667"
     inkscape:cx="11.988315"
     inkscape:cy="12.023369"
     inkscape:current-layer="svg7" />
  <defs
     id="defs3">
    <style
       id="current-color-scheme"
       type="text/css">
   .ColorScheme-Text { color:#dfdfdf; } .ColorScheme-Highlight { color:#4285f4; } .ColorScheme-NeutralText { color:#ff9800; } .ColorScheme-PositiveText { color:#4caf50; } .ColorScheme-NegativeText { color:#f44336; }
  </style>
  </defs>
  <path
     style="fill:currentColor;stroke-width:1.4375"
     class="ColorScheme-Text"
     d="M 3.375,0.5 C 1.78225,0.5 0.5,1.78225 0.5,3.375 v 17.25 c 0,1.59275 1.28225,2.875 2.875,2.875 h 17.25 c 1.59275,0 2.875,-1.28225 2.875,-2.875 V 3.375 C 23.5,1.78225 22.21775,0.5 20.625,0.5 Z M 4.0740966,6.25 H 10.5625 V 7.6875 H 5.2673339 l -0.2695312,3.12207 c 0.1802178,-0.03177 0.4225505,-0.06995 0.7299806,-0.112312 0.3074299,-0.04236 0.6481288,-0.06457 1.0191647,-0.06457 1.155513,0 2.076436,0.293563 2.765503,0.875977 0.699668,0.582417 1.050049,1.403353 1.050049,2.462285 0,1.175413 -0.37599,2.101823 -1.128662,2.779541 C 8.691766,17.417614 7.653113,17.75 6.3173828,17.75 5.7237249,17.75 5.1725459,17.695859 4.6636963,17.589966 4.1548468,17.484073 3.724834,17.330713 3.375,17.129516 v -1.316772 c 0.3816371,0.232966 0.8435026,0.41825 1.3841552,0.555908 0.5512537,0.127075 1.0740171,0.190918 1.5722657,0.190918 0.8374811,0 1.5126351,-0.197794 2.0214841,-0.589599 0.519451,-0.402394 0.77771,-1.022085 0.77771,-1.858643 0,-0.741251 -0.226406,-1.306804 -0.682251,-1.698609 C 7.99252,12.010324 7.269587,11.80908 6.2836914,11.809083 c -0.2968289,-2e-6 -0.6347204,0.02567 -1.0163575,0.07862 -0.3816371,0.05294 -0.6904833,0.107093 -0.923706,0.160034 L 3.6445312,11.604125 Z m 13.3081064,0 c 0.581788,0 1.128544,0.05637 1.642456,0.1712646 0.523609,0.1148954 1.008308,0.2768164 1.454346,0.4857174 L 19.984864,8.131104 C 19.616398,7.963983 19.200903,7.815649 18.735474,7.690307 18.27974,7.554521 17.803722,7.488159 17.309204,7.488159 c -1.241148,0 -2.210546,0.4066 -2.908691,1.221314 C 13.712064,9.513742 13.36731,10.610809 13.36731,12 c 0,0.88783 0.131258,1.677447 0.393065,2.366821 0.271501,0.678928 0.694145,1.211069 1.266237,1.597534 0.572092,0.376024 1.320848,0.564332 2.251708,0.564332 0.455734,0 0.845178,-0.02639 1.165162,-0.07862 0.319983,-0.05222 0.482213,-0.115 0.744018,-0.18811 V 13.4375 h -2.875 V 12 h 4.3125 v 5.17163 c -0.562395,0.198457 -1.129326,0.343984 -1.701416,0.437989 C 18.351492,17.703625 17.702331,17.75 16.975098,17.75 15.89879,17.75 14.991446,17.518907 14.254516,17.059326 13.517585,16.589299 12.954996,15.928028 12.567138,15.071534 12.188977,14.204595 12,13.180291 12,12 12,10.8406 12.209151,9.83269 12.626099,8.976196 13.052743,8.109257 13.668705,7.441585 14.473511,6.971558 15.278317,6.4910853 16.247718,6.25 17.382203,6.25 Z"
     id="path5" />
</svg>
