<?xml version="1.0" encoding="UTF-8" standalone="no"?>
<svg
   width="24"
   height="24"
   version="1.1"
   id="svg7"
   sodipodi:docname="bluetooth-active.svg"
   inkscape:version="1.2.1 (9c6d41e410, 2022-07-14)"
   xmlns:inkscape="http://www.inkscape.org/namespaces/inkscape"
   xmlns:sodipodi="http://sodipodi.sourceforge.net/DTD/sodipodi-0.dtd"
   xmlns="http://www.w3.org/2000/svg"
   xmlns:svg="http://www.w3.org/2000/svg">
  <sodipodi:namedview
     id="namedview9"
     pagecolor="#ffffff"
     bordercolor="#000000"
     borderopacity="0.25"
     inkscape:showpageshadow="2"
     inkscape:pageopacity="0.0"
     inkscape:pagecheckerboard="0"
     inkscape:deskcolor="#d1d1d1"
     showgrid="false"
     inkscape:zoom="42.791667"
     inkscape:cx="11.988315"
     inkscape:cy="12.023369"
     inkscape:current-layer="svg7" />
  <defs
     id="defs3">
    <style
       id="current-color-scheme"
       type="text/css">
   .ColorScheme-Text { color:#dfdfdf; } .ColorScheme-Highlight { color:#4285f4; } .ColorScheme-NeutralText { color:#ff9800; } .ColorScheme-PositiveText { color:#4caf50; } .ColorScheme-NegativeText { color:#f44336; }
  </style>
  </defs>
  <path
     style="fill:currentColor;stroke-width:1.43747"
     class="ColorScheme-Text"
     d="M 10.657468,0.6428555 A 1.4376179,1.4376179 0 0 0 9.8432737,1.9371438 V 7.782498 L 6.4124275,5.1153091 A 1.4374741,1.4374741 0 0 0 4.3965946,5.3679902 1.4374741,1.4374741 0 0 0 4.6492756,7.383823 l 5.1939981,4.040089 v 1.151102 l -5.1939981,4.040089 a 1.4374741,1.4374741 0 0 0 -0.252681,2.015831 1.4374741,1.4374741 0 0 0 2.0158329,0.252683 l 3.4308462,-2.667189 v 5.845355 a 1.4376179,1.4376179 0 0 0 2.3358953,1.123026 l 7.187372,-5.749898 a 1.4376179,1.4376179 0 0 0 -0.01685,-2.257282 l -4.085005,-3.178165 4.085009,-3.178167 a 1.4376179,1.4376179 0 0 0 0.01685,-2.257283 L 12.17917,0.8141172 A 1.4376179,1.4376179 0 0 0 10.657468,0.6428555 Z m 2.060754,4.2871543 3.428041,2.7429932 -3.223089,2.507158 -0.204952,-0.160033 z m 0.204952,8.8887572 3.223089,2.507156 -3.428041,2.742994 v -5.090119 z"
     id="path5" />
</svg>
