<?xml version="1.0" encoding="UTF-8" standalone="no"?>
<svg
   width="24"
   height="24"
   version="1.1"
   id="svg7"
   sodipodi:docname="camera-on.svg"
   inkscape:version="1.2.1 (9c6d41e410, 2022-07-14)"
   xmlns:inkscape="http://www.inkscape.org/namespaces/inkscape"
   xmlns:sodipodi="http://sodipodi.sourceforge.net/DTD/sodipodi-0.dtd"
   xmlns="http://www.w3.org/2000/svg"
   xmlns:svg="http://www.w3.org/2000/svg">
  <sodipodi:namedview
     id="namedview9"
     pagecolor="#ffffff"
     bordercolor="#000000"
     borderopacity="0.25"
     inkscape:showpageshadow="2"
     inkscape:pageopacity="0.0"
     inkscape:pagecheckerboard="0"
     inkscape:deskcolor="#d1d1d1"
     showgrid="false"
     inkscape:zoom="42.791667"
     inkscape:cx="11.988315"
     inkscape:cy="12.070107"
     inkscape:current-layer="svg7" />
  <defs
     id="defs3">
    <style
       id="current-color-scheme"
       type="text/css">
   .ColorScheme-Text { color:#dfdfdf; } .ColorScheme-Highlight { color:#4285f4; } .ColorScheme-NeutralText { color:#ff9800; } .ColorScheme-PositiveText { color:#4caf50; } .ColorScheme-NegativeText { color:#f44336; }
  </style>
  </defs>
  <path
     style="fill:#4285f4;fill-opacity:1;stroke-width:1.64286"
     class="ColorScheme-PositiveText"
     d="m 11.999589,0.5 c -5.4439355,0 -9.8571425,4.4132071 -9.8571425,9.857143 0,3.428643 1.7591714,6.448378 4.415179,8.214286 H 5.4281608 c -3.2857143,0 -3.2857143,3.285714 -3.2857143,3.285714 V 23.5 H 21.856732 v -1.642857 c 0,0 0,-3.285714 -3.285715,-3.285714 h -1.129463 c 2.6565,-1.766072 4.416,-4.785643 4.416,-8.214286 C 21.857553,4.9132071 17.444839,0.5 12.00041,0.5 Z m 0,6.577836 A 3.2857143,3.2857143 0 0 1 15.285303,10.36355 3.2857143,3.2857143 0 0 1 11.999589,13.649264 3.2857143,3.2857143 0 0 1 8.7138755,10.36355 3.2857143,3.2857143 0 0 1 11.999589,7.077836 Z"
     id="path5" />
</svg>
