<?xml version="1.0" encoding="UTF-8" standalone="no"?>
<svg
   width="24"
   height="24"
   version="1.1"
   id="svg7"
   sodipodi:docname="network-wired.svg"
   inkscape:version="1.2.1 (9c6d41e410, 2022-07-14)"
   xmlns:inkscape="http://www.inkscape.org/namespaces/inkscape"
   xmlns:sodipodi="http://sodipodi.sourceforge.net/DTD/sodipodi-0.dtd"
   xmlns="http://www.w3.org/2000/svg"
   xmlns:svg="http://www.w3.org/2000/svg">
  <sodipodi:namedview
     id="namedview9"
     pagecolor="#ffffff"
     bordercolor="#000000"
     borderopacity="0.25"
     inkscape:showpageshadow="2"
     inkscape:pageopacity="0.0"
     inkscape:pagecheckerboard="0"
     inkscape:deskcolor="#d1d1d1"
     showgrid="false"
     inkscape:zoom="42.791667"
     inkscape:cx="11.988315"
     inkscape:cy="12.023369"
     inkscape:current-layer="svg7" />
  <defs
     id="defs3">
    <style
       id="current-color-scheme"
       type="text/css">
   .ColorScheme-Text { color:#dfdfdf; } .ColorScheme-Highlight { color:#4285f4; } .ColorScheme-NeutralText { color:#ff9800; } .ColorScheme-PositiveText { color:#4caf50; } .ColorScheme-NegativeText { color:#f44336; }
  </style>
  </defs>
  <path
     style="fill:currentColor;stroke-width:1.53333"
     class="ColorScheme-Text"
     d="m 2.0333333,2.0333336 c 0,0 -1.5333333,0 -1.5333333,1.5333333 V 18.9 c 0,1.533333 1.5333333,1.533333 1.5333333,1.533333 H 5.1 l 1.533333,1.533333 H 17.366667 L 18.9,20.433333 h 3.066667 c 0,0 1.533333,0.199333 1.533333,-1.533333 V 3.5666669 C 23.5,2.0333336 21.966667,2.0333336 21.966667,2.0333336 Z M 3.5666667,5.1000003 H 5.1 V 8.1666664 H 6.633333 V 5.1000003 H 8.166667 V 8.1666664 H 9.7 V 5.1000003 h 1.533333 v 3.0666661 h 1.533334 V 5.1000003 H 14.3 v 3.0666661 h 1.533333 V 5.1000003 h 1.533334 V 8.1666664 H 18.9 V 5.1000003 h 1.533333 V 17.366666 H 17.366667 L 15.833333,18.9 H 8.166667 L 6.633333,17.366666 H 3.5666667 Z"
     id="path5" />
</svg>
