<?xml version="1.0" encoding="UTF-8" standalone="no"?>
<svg
   height="16"
   viewBox="0 0 16 16"
   width="16"
   version="1.1"
   id="svg6"
   sodipodi:docname="folder-download-symbolic-new.svg"
   inkscape:version="1.2.1 (9c6d41e410, 2022-07-14)"
   xmlns:inkscape="http://www.inkscape.org/namespaces/inkscape"
   xmlns:sodipodi="http://sodipodi.sourceforge.net/DTD/sodipodi-0.dtd"
   xmlns="http://www.w3.org/2000/svg"
   xmlns:svg="http://www.w3.org/2000/svg"
   xmlns:rdf="http://www.w3.org/1999/02/22-rdf-syntax-ns#"
   xmlns:cc="http://creativecommons.org/ns#"
   xmlns:dc="http://purl.org/dc/elements/1.1/">
  <metadata
     id="metadata10">
    <rdf:RDF>
      <cc:Work
         rdf:about="">
        <dc:format>image/svg+xml</dc:format>
        <dc:type
           rdf:resource="http://purl.org/dc/dcmitype/StillImage" />
      </cc:Work>
    </rdf:RDF>
  </metadata>
  <sodipodi:namedview
     pagecolor="#ffffff"
     bordercolor="#666666"
     borderopacity="1"
     objecttolerance="10"
     gridtolerance="10"
     guidetolerance="10"
     inkscape:pageopacity="0"
     inkscape:pageshadow="2"
     inkscape:window-width="1366"
     inkscape:window-height="704"
     id="namedview8"
     showgrid="false"
     inkscape:zoom="41.7193"
     inkscape:cx="8.3534479"
     inkscape:cy="7.059083"
     inkscape:window-x="0"
     inkscape:window-y="30"
     inkscape:window-maximized="1"
     inkscape:current-layer="svg6"
     inkscape:showpageshadow="2"
     inkscape:pagecheckerboard="0"
     inkscape:deskcolor="#d1d1d1" />
  <defs
     id="defs2">
    <style
       type="text/css"
       id="current-color-scheme">
      .ColorScheme-Text {
        color:#122036;
      }
      </style>
  </defs>
  <path
     style="fill:#444444;fill-opacity:1;stroke-width:0.0359959"
     d="M 7.5830239,13.917422 C 7.4694232,13.881107 7.2993423,13.801756 7.2050663,13.741088 7.1107905,13.680419 6.3030638,12.897045 5.4101185,12.000255 3.6426632,10.225189 3.6338967,10.214475 3.5505001,9.7276095 3.419925,8.9653165 3.9705733,8.1954065 4.752392,8.0471375 c 0.1019293,-0.01933 0.5471415,-0.03515 0.9893602,-0.03515 h 0.8040343 l 0.00996,-2.4567246 0.00996,-2.4567242 0.097042,-0.2070719 C 6.943233,2.2929399 7.6272441,1.9256474 8.2508413,2.0387103 c 0.590825,0.1071211 1.043819,0.5227898 1.192663,1.0943921 0.04771,0.1832114 0.05587,0.555094 0.05587,2.5467141 v 2.332175 h 0.7869977 c 0.432849,0 0.873066,0.01632 0.978257,0.03627 0.465037,0.08819 0.880953,0.403051 1.088014,0.823654 0.110032,0.223511 0.116369,0.258127 0.115783,0.63315 -10e-4,0.6556815 0.07869,0.5486735 -1.845777,2.4782745 -0.9048727,0.907285 -1.7113597,1.695862 -1.7921917,1.752394 -0.3431808,0.240008 -0.8390708,0.312233 -1.247445,0.181687 z"
     id="path565" />
</svg>
