<?xml version="1.0" encoding="UTF-8" standalone="no"?>
<svg
   width="16"
   height="16"
   version="1.1"
   id="svg50093"
   sodipodi:docname="mail-folder-inbox.svg"
   inkscape:version="1.2.1 (9c6d41e410, 2022-07-14)"
   xmlns:inkscape="http://www.inkscape.org/namespaces/inkscape"
   xmlns:sodipodi="http://sodipodi.sourceforge.net/DTD/sodipodi-0.dtd"
   xmlns="http://www.w3.org/2000/svg"
   xmlns:svg="http://www.w3.org/2000/svg">
  <defs
     id="defs50097" />
  <sodipodi:namedview
     id="namedview50095"
     pagecolor="#ffffff"
     bordercolor="#000000"
     borderopacity="0.25"
     inkscape:showpageshadow="2"
     inkscape:pageopacity="0.0"
     inkscape:pagecheckerboard="0"
     inkscape:deskcolor="#d1d1d1"
     showgrid="false"
     inkscape:zoom="64.1875"
     inkscape:cx="7.3067186"
     inkscape:cy="8.0155794"
     inkscape:current-layer="svg50093" />
  <path
     style="fill:#dfdfdf;fill-opacity:1"
     d="M 2,1 C 1,1 1,2 1,2 V 14 C 1,14 1,15 2,15 H 14 C 15,15 15,14 15,14 V 2 C 15,2 15,1 14,1 H 11 V 3 H 13 V 10 H 10 C 10,11.11 9.11,12 8,12 6.89,12 6,11.11 6,10 H 3 V 3 H 5 V 1 Z"
     id="path50089" />
  <path
     style="fill:#dfdfdf;fill-opacity:1"
     d="M 6,1 V 5 H 4 L 8,10 12,5 H 10 V 1 Z"
     id="path50091" />
</svg>
