<?xml version="1.0" encoding="UTF-8" standalone="no"?>
<!-- Created with Inkscape (http://www.inkscape.org/) -->

<svg
   width="48"
   height="48"
   viewBox="0 0 12.7 12.7"
   version="1.1"
   id="svg5"
   xml:space="preserve"
   inkscape:version="1.2.1 (9c6d41e410, 2022-07-14)"
   sodipodi:docname="marvaita22.svg"
   inkscape:export-filename="marvaita2.png"
   inkscape:export-xdpi="1000"
   inkscape:export-ydpi="1000"
   xmlns:inkscape="http://www.inkscape.org/namespaces/inkscape"
   xmlns:sodipodi="http://sodipodi.sourceforge.net/DTD/sodipodi-0.dtd"
   xmlns:xlink="http://www.w3.org/1999/xlink"
   xmlns="http://www.w3.org/2000/svg"
   xmlns:svg="http://www.w3.org/2000/svg"><sodipodi:namedview
     id="namedview7"
     pagecolor="#ffffff"
     bordercolor="#000000"
     borderopacity="0.25"
     inkscape:showpageshadow="2"
     inkscape:pageopacity="0.0"
     inkscape:pagecheckerboard="0"
     inkscape:deskcolor="#d1d1d1"
     inkscape:document-units="mm"
     showgrid="false"
     inkscape:zoom="10.35098"
     inkscape:cx="7.97026"
     inkscape:cy="24.587044"
     inkscape:current-layer="layer1" /><defs
     id="defs2"><linearGradient
       inkscape:collect="always"
       id="linearGradient30839"><stop
         style="stop-color:#59deff;stop-opacity:1;"
         offset="0.03648834"
         id="stop30833" /><stop
         style="stop-color:#2978f5;stop-opacity:1;"
         offset="0.49795151"
         id="stop30835" /><stop
         style="stop-color:#5e28f0;stop-opacity:1;"
         offset="0.96052945"
         id="stop30837" /></linearGradient><linearGradient
       inkscape:collect="always"
       id="linearGradient4005"><stop
         style="stop-color:#f4fcff;stop-opacity:1;"
         offset="0.50907856"
         id="stop4001" /><stop
         style="stop-color:#e5f0ff;stop-opacity:1;"
         offset="0.69453931"
         id="stop28095" /><stop
         style="stop-color:#8fc7ff;stop-opacity:1;"
         offset="1"
         id="stop4003" /></linearGradient><linearGradient
       inkscape:collect="always"
       xlink:href="#linearGradient4005"
       id="linearGradient4007"
       x1="0.6559062"
       y1="6.3239527"
       x2="12.020524"
       y2="6.3239527"
       gradientUnits="userSpaceOnUse"
       gradientTransform="translate(-0.0142622,-12.662168)" /><linearGradient
       inkscape:collect="always"
       xlink:href="#linearGradient30839"
       id="linearGradient28529"
       x1="2.7196989"
       y1="6.2043338"
       x2="9.7366314"
       y2="6.2043338"
       gradientUnits="userSpaceOnUse"
       spreadMethod="pad" /></defs><g
     inkscape:label="Шар 1"
     inkscape:groupmode="layer"
     id="layer1"><circle
       style="fill:url(#linearGradient4007);fill-opacity:1;stroke-width:0.264583"
       id="path234"
       cx="6.3239527"
       cy="-6.3382149"
       r="5.6823087"
       transform="rotate(90)" /><path
       d="M 7.5891994,4.8895953 A 0.41805456,0.41805456 0 1 0 7.8849233,5.0119261 0.41664487,0.41664487 0 0 0 7.5891994,4.8895953 Z"
       id="path346-7"
       style="opacity:0.3;stroke-width:0.0156634" /><path
       d="M 4.9746746,8.4866816 A 0.25061345,0.25061345 0 0 0 4.8023779,8.5285027 C 4.7022891,8.5969516 4.6017305,8.6646172 4.500232,8.7305598 4.2948856,8.8640115 4.0492844,8.6296879 4.1713018,8.417293 L 4.3616114,8.0883628 A 0.25061345,0.25061345 0 0 0 4.1241552,7.698189 0.95937963,0.95937963 0 0 0 3.5660703,7.9716709 C 3.5087426,8.0291554 3.3344096,8.203645 3.2405861,8.8685539 a 5.6065362,5.6065362 0 0 0 -0.050435,0.575941 0.25061345,0.25061345 0 0 0 0.2506134,0.2570354 h 0.00627 A 5.6367664,5.6367664 0 0 0 4.0234399,9.6514076 C 4.688662,9.5574276 4.8631516,9.3829379 4.9204794,9.3256101 A 0.94747548,0.94747548 0 0 0 5.192865,8.7658023 0.25061345,0.25061345 0 0 0 4.9746746,8.4866816 Z"
       id="path350-3"
       style="opacity:0.3;stroke-width:0.0156634" /><path
       d="m 9.9166152,3.217847 a 0.00454236,0.00454236 0 0 1 0,-0.00141 A 0.31953215,0.31953215 0 0 0 9.6796289,2.9767882 C 9.2128614,2.8629157 8.478564,2.9843066 7.6648534,3.3101041 6.8447209,3.6390342 6.0762773,4.1245978 5.556881,4.644934 A 5.0232334,5.0232334 0 0 0 5.0940292,5.1748248 C 4.7442668,5.1591615 4.4361689,5.2089709 4.1766274,5.3222168 3.2722261,5.7202223 3.0139376,6.7388094 2.9451755,7.1570206 a 0.39158352,0.39158352 0 0 0 0.4258862,0.4542369 h 0.00204 L 4.3805641,7.5013009 c 0.00125,0.012844 0.00267,0.024592 0.00376,0.035399 A 0.53819239,0.53819239 0 0 0 4.5393916,7.8612444 L 5.031064,8.3532298 a 0.53678269,0.53678269 0 0 0 0.3243878,0.1552237 l 0.033676,0.0036 -0.1096433,1.0062129 c 0,0 0,0.00125 0,0.00204 a 0.39158352,0.39158352 0 0 0 0.3854748,0.4318383 0.39549936,0.39549936 0 0 0 0.065003,-0.00532 C 6.1505216,9.8791526 7.1686387,9.6239968 7.5655478,8.7147399 7.677854,8.4569213 7.7275068,8.1500764 7.7135663,7.8009406 A 4.9305065,4.9305065 0 0 0 8.2453368,7.3380888 C 8.7689623,6.8171261 9.2560922,6.0549479 9.5815764,5.2467196 9.9056509,4.4422504 10.027668,3.7024707 9.9166152,3.217847 Z M 8.239698,5.9570521 a 0.92053455,0.92053455 0 1 1 0,-1.3011538 0.91317277,0.91317277 0 0 1 0,1.3011538 z"
       id="path348-5"
       style="opacity:0.2;stroke-width:0.0156634" /><g
       id="g28153"
       style="fill-opacity:1.0;fill:url(#linearGradient28529)"><path
         d="M 7.3690998,4.6503549 A 0.41805456,0.41805456 0 1 0 7.6648237,4.7726857 0.41664487,0.41664487 0 0 0 7.3690998,4.6503549 Z"
         id="path346"
         style="mix-blend-mode:normal;fill:url(#linearGradient28529);fill-opacity:1.0;stroke-width:0.0157627;stroke-dasharray:none" /><path
         d="m 9.6965156,2.9786066 a 0.00454236,0.00454236 0 0 1 0,-0.00141 A 0.31953215,0.31953215 0 0 0 9.4595292,2.7375479 C 8.9927618,2.6236753 8.2584643,2.7450662 7.4447538,3.0708637 6.6246213,3.3997938 5.8561777,3.8853574 5.3367814,4.4056936 A 5.0232334,5.0232334 0 0 0 4.8739296,4.9355844 C 4.5241672,4.9199211 4.2160693,4.9697305 3.9565278,5.0829764 3.0521264,5.4809819 2.7938379,6.499569 2.7250758,6.9177802 a 0.39158352,0.39158352 0 0 0 0.4258863,0.4542369 h 0.00204 L 4.1604652,7.262061 c 0.00125,0.012844 0.00267,0.024591 0.00376,0.035399 a 0.53819239,0.53819239 0 0 0 0.155067,0.3245445 L 4.8109633,8.11399 a 0.53678269,0.53678269 0 0 0 0.3243878,0.1552237 l 0.033676,0.0036 -0.1096433,1.0062129 c 0,0 0,0.00125 0,0.00204 a 0.39158352,0.39158352 0 0 0 0.3854748,0.4318383 0.39549936,0.39549936 0 0 0 0.065002,-0.00532 C 5.9304219,9.6399122 6.9485391,9.3847564 7.3454481,8.4754995 7.4577544,8.2176809 7.5074071,7.910836 7.4934667,7.5617002 A 4.9305065,4.9305065 0 0 0 8.0252371,7.0988484 C 8.5488627,6.5778857 9.0359926,5.8157076 9.3614768,5.0074792 9.6855512,4.20301 9.8075687,3.4632305 9.6965156,2.9786066 Z M 8.0195984,5.7178117 a 0.92053455,0.92053455 0 1 1 0,-1.3011538 0.91317277,0.91317277 0 0 1 0,1.3011538 z"
         id="path348"
         style="mix-blend-mode:normal;fill:url(#linearGradient28529);fill-opacity:1.0;stroke-width:0.0157627;stroke-dasharray:none" /><path
         d="M 4.7545749,8.2474412 A 0.25061345,0.25061345 0 0 0 4.5822782,8.2892623 C 4.4821895,8.3577112 4.3816308,8.4253768 4.2801324,8.4913195 4.0747859,8.6247711 3.8291847,8.3904475 3.9512022,8.1780526 L 4.1415117,7.8491224 A 0.25061345,0.25061345 0 0 0 3.9040556,7.4589486 0.95937963,0.95937963 0 0 0 3.3459707,7.7324306 C 3.2886429,7.789915 3.1143099,7.9644046 3.0204864,8.6293135 A 5.6065362,5.6065362 0 0 0 2.9700505,9.2052546 0.25061345,0.25061345 0 0 0 3.220664,9.4622899 h 0.00627 A 5.6367664,5.6367664 0 0 0 3.8033403,9.4121672 C 4.4685623,9.3181872 4.643052,9.1436975 4.7003798,9.0863698 A 0.94747548,0.94747548 0 0 0 4.9727653,8.5265619 0.25061345,0.25061345 0 0 0 4.7545749,8.2474412 Z"
         id="path350"
         style="mix-blend-mode:normal;fill:url(#linearGradient28529);fill-opacity:1.0;stroke-width:0.0157627;stroke-dasharray:none" /></g><circle
       style="fill:#2c8eec;fill-opacity:1;stroke-width:0.0833183;stroke:none;stroke-opacity:1"
       id="path234-3"
       cx="10.288044"
       cy="10.224921"
       r="1.7893852" /><g
       aria-label="2"
       id="text25087"
       style="font-weight:bold;font-size:2.5241px;-inkscape-font-specification:'sans-serif Bold';fill:#f9f9f9;stroke-width:0.0103349"><path
         d="M 11.041083,11.143728 H 9.535004 q 0.025882,-0.223077 0.1565237,-0.41904 0.1318744,-0.197195 0.4929883,-0.464641 0.220612,-0.163919 0.282236,-0.248959 0.06162,-0.085041 0.06162,-0.161454 0,-0.082576 -0.06162,-0.1405017 -0.06039,-0.059159 -0.152827,-0.059159 -0.09613,0 -0.157756,0.060391 -0.06039,0.060391 -0.08134,0.2132174 L 9.5719781,9.8829107 q 0.029579,-0.211985 0.1084574,-0.3303022 0.078878,-0.1195496 0.2218447,-0.1824056 0.1441988,-0.064089 0.3980878,-0.064089 0.264982,0 0.411646,0.060391 0.147896,0.060391 0.231704,0.186103 0.08504,0.1244796 0.08504,0.2797709 0,0.1651511 -0.09736,0.3155122 -0.09613,0.150361 -0.351254,0.330302 -0.151594,0.10476 -0.203358,0.146664 -0.05053,0.0419 -0.119549,0.10969 h 0.783851 z"
         style="font-family:'Arial Black';-inkscape-font-specification:'Arial Black,  Bold'"
         id="path28165" /></g></g></svg>
