<?xml version="1.0" encoding="UTF-8" standalone="no"?>
<svg
   width="16"
   height="16"
   viewBox="0 0 16 16"
   version="1.1"
   id="svg7"
   sodipodi:docname="format-remove-node.svg"
   xml:space="preserve"
   inkscape:version="1.2.1 (9c6d41e410, 2022-07-14)"
   xmlns:inkscape="http://www.inkscape.org/namespaces/inkscape"
   xmlns:sodipodi="http://sodipodi.sourceforge.net/DTD/sodipodi-0.dtd"
   xmlns="http://www.w3.org/2000/svg"
   xmlns:svg="http://www.w3.org/2000/svg"><sodipodi:namedview
     id="namedview9"
     pagecolor="#ffffff"
     bordercolor="#000000"
     borderopacity="0.25"
     inkscape:showpageshadow="2"
     inkscape:pageopacity="0.0"
     inkscape:pagecheckerboard="0"
     inkscape:deskcolor="#d1d1d1"
     showgrid="false"
     inkscape:zoom="32.09375"
     inkscape:cx="7.6962025"
     inkscape:cy="11.63778"
     inkscape:current-layer="svg7" /><defs
     id="defs3"><style
       id="current-color-scheme"
       type="text/css">
   .ColorScheme-Text { color:#444444; } .ColorScheme-Highlight { color:#4285f4; }
  </style></defs><path
     d="m 0.6202533,-24.077897 c -1.660156,0 -3,1.339844 -3,3 v 5 c 0,1.660156 1.339844,3 3,3 0.359375,0 0.699219,-0.06641 1.015625,-0.179688 0.039063,-0.453124 0.230469,-0.894531 0.570313,-1.234374 0.332031,-0.332032 0.769531,-0.535157 1.234374,-0.574219 0.113282,-0.316407 0.179688,-0.65625 0.179688,-1.011719 v -5 c 0,-1.660156 -1.339844,-3 -3,-3 z m 0,2 c 0.554688,0 1,0.445312 1,1 v 5 c 0,0.554688 -0.445312,1 -1,1 -0.554688,0 -1,-0.445312 -1,-1 v -5 c 0,-0.554688 0.445312,-1 1,-1 z m -6,4 v 2.011719 c 0,2.964843 2.164062,5.421875 5,5.898437 v 2.089844 h 2 v -2.089844 c 0.128906,-0.02344 0.253906,-0.04687 0.382812,-0.07813 0.058594,-0.08594 0.125,-0.167969 0.203126,-0.246093 l 0.414062,-0.414058 v -0.34375 l -0.414062,-0.414063 c -0.050782,-0.05078 -0.101563,-0.105468 -0.144532,-0.164062 -0.449218,0.15625 -0.933594,0.25 -1.441406,0.25 -2.507812,0 -4.5,-1.988281 -4.5,-4.488281 v -2.011719 z m 10.5,0 v 2.011719 c 0,0.503906 -0.08984,0.980469 -0.246094,1.429687 0.05469,0.04297 0.109375,0.09375 0.160156,0.144532 l 0.414063,0.414062 h 0.34375 l 0.414063,-0.414062 c 0.078124,-0.07813 0.160156,-0.144532 0.246093,-0.210938 0.109375,-0.4375 0.167969,-0.894531 0.167969,-1.363281 v -2.011719 z m 0,0"
     fill-opacity="0.34902"
     id="path2"
     style="opacity:0.3;fill:#444444;fill-opacity:1" /><g
     id="g585"><path
       style="fill:#444444;fill-opacity:1"
       d="M 5,2 V 4 H 1 v 1 h 4 v 3 h 6 V 5 h 4 V 4 H 11 V 2 Z"
       id="path5" /><path
       d="m 10.833333,8.9999998 c -0.221354,0 -0.432942,0.087891 -0.589192,0.2441408 -0.3255212,0.3255209 -0.3255212,0.8528644 0,1.1783854 L 11.321615,11.5 10.244141,12.577474 c -0.3255212,0.325521 -0.3255212,0.852864 0,1.178385 0.325521,0.325521 0.852864,0.325521 1.178385,0 L 12.5,12.678385 l 1.077474,1.077474 c 0.325521,0.325521 0.852864,0.325521 1.178385,0 0.325521,-0.325521 0.325521,-0.852864 0,-1.178385 L 13.678385,11.5 14.755859,10.422526 c 0.325521,-0.325521 0.325521,-0.8528645 0,-1.1783854 -0.15625,-0.15625 -0.367838,-0.2441408 -0.589192,-0.2441408 -0.221354,0 -0.432943,0.087891 -0.589193,0.2441408 L 12.5,10.321615 11.422526,9.2441406 c -0.15625,-0.15625 -0.367838,-0.2441408 -0.589193,-0.2441408 z m 0,0"
       id="path4"
       style="fill:#444444;fill-opacity:1;stroke-width:0.833333" /></g></svg>
