<?xml version="1.0" encoding="UTF-8" standalone="no"?>
<svg
   width="16"
   height="16"
   version="1"
   id="svg4"
   sodipodi:docname="preferences-desktop-default-applications-symbolic.svg"
   xml:space="preserve"
   inkscape:version="1.2.1 (9c6d41e410, 2022-07-14)"
   xmlns:inkscape="http://www.inkscape.org/namespaces/inkscape"
   xmlns:sodipodi="http://sodipodi.sourceforge.net/DTD/sodipodi-0.dtd"
   xmlns="http://www.w3.org/2000/svg"
   xmlns:svg="http://www.w3.org/2000/svg"><defs
     id="defs8" /><sodipodi:namedview
     id="namedview6"
     pagecolor="#ffffff"
     bordercolor="#000000"
     borderopacity="0.25"
     inkscape:showpageshadow="2"
     inkscape:pageopacity="0.0"
     inkscape:pagecheckerboard="0"
     inkscape:deskcolor="#d1d1d1"
     showgrid="false"
     inkscape:zoom="32.09375"
     inkscape:cx="-0.28042843"
     inkscape:cy="5.5618306"
     inkscape:current-layer="svg4" /><path
     id="path2"
     style="fill:#444444"
     d="M 8 0 C 3.5680044 0 0 3.5680044 0 8 C 0 12.431996 3.5680044 16 8 16 C 12.431996 16 16 12.431996 16 8 C 16 3.5680044 12.431996 0 8 0 z M 8.0058594 1.2167969 C 8.301901 1.2167969 8.5969606 1.3774924 8.7265625 1.6972656 L 10.125 5.1367188 L 13.841797 5.4121094 C 14.550324 5.4640243 14.826487 6.3456063 14.291016 6.7949219 L 11.457031 9.1992188 L 12.337891 12.810547 C 12.493512 13.484837 11.75194 14.020871 11.164062 13.658203 L 8 11.705078 L 4.8359375 13.658203 C 4.2312471 14.038299 3.4889455 13.486411 3.6621094 12.8125 L 4.5429688 9.1992188 L 1.7089844 6.796875 C 1.1728989 6.3475604 1.4500508 5.4815893 2.1582031 5.4121094 L 5.8730469 5.1367188 L 7.2734375 1.6972656 C 7.4118159 1.3774924 7.7098178 1.2167969 8.0058594 1.2167969 z " /><g
     id="g293"
     transform="translate(-55.618672,-39.417808)"><g
       id="g239">
	
</g><g
       id="g241">
</g><g
       id="g243">
</g><g
       id="g245">
</g><g
       id="g247">
</g><g
       id="g249">
</g><g
       id="g251">
</g><g
       id="g253">
</g><g
       id="g255">
</g><g
       id="g257">
</g><g
       id="g259">
</g><g
       id="g261">
</g><g
       id="g263">
</g><g
       id="g265">
</g><g
       id="g267">
</g><g
       id="g269">
</g></g></svg>
