<?xml version="1.0" encoding="UTF-8" standalone="no"?>
<svg
   width="16.017"
   height="16.005"
   version="1.1"
   id="svg4"
   sodipodi:docname="preferences-desktop-accessibility-symbolic.svg"
   inkscape:version="1.2.1 (9c6d41e410, 2022-07-14)"
   xmlns:inkscape="http://www.inkscape.org/namespaces/inkscape"
   xmlns:sodipodi="http://sodipodi.sourceforge.net/DTD/sodipodi-0.dtd"
   xmlns="http://www.w3.org/2000/svg"
   xmlns:svg="http://www.w3.org/2000/svg">
  <defs
     id="defs8" />
  <sodipodi:namedview
     id="namedview6"
     pagecolor="#ffffff"
     bordercolor="#000000"
     borderopacity="0.25"
     inkscape:showpageshadow="2"
     inkscape:pageopacity="0.0"
     inkscape:pagecheckerboard="0"
     inkscape:deskcolor="#d1d1d1"
     showgrid="false"
     inkscape:zoom="22.68662"
     inkscape:cx="-7.9782709"
     inkscape:cy="10.380568"
     inkscape:current-layer="svg4" />
  <g
     id="g1002"
     transform="matrix(1.3333331,0,0,1.3333331,40.583429,-3.0537595)"
     style="fill:#444444;fill-opacity:1">
    <path
       id="path339"
       style="opacity:1;fill:#444444;fill-opacity:1;stroke-width:1.714"
       d="m -28.938807,6.2921945 a 0.5,0.5 0 0 0 -0.34961,0.1503906 0.5,0.5 0 0 0 -0.142578,0.3515625 0.5,0.5 0 0 0 0.146485,0.3515625 c 0.04825,0.04825 0.09031,0.084625 0.128906,0.1113282 0.03859,0.026703 0.07455,0.043578 0.107422,0.056641 0.06575,0.026125 0.122953,0.033734 0.189453,0.052734 0.454999,0.0955 0.836297,0.1839375 1.216797,0.2578124 0.19025,0.036937 0.381453,0.071313 0.580078,0.099609 0.198625,0.028297 0.40586,0.050859 0.630859,0.068359 -0.01225,0.4692495 -0.02477,0.9103129 -0.03906,1.3222656 -0.0143,0.4119527 -0.0305,0.7946723 -0.05469,1.1464847 -0.02419,0.351812 -0.05573,0.67211 -0.09766,0.960938 -0.02096,0.144413 -0.0454,0.282021 -0.07227,0.410156 -0.02687,0.128134 -0.05609,0.247875 -0.08984,0.359375 -0.075,0.2465 -0.149125,0.460406 -0.21875,0.644531 -0.06962,0.184125 -0.134907,0.33875 -0.191407,0.46875 l -0.142578,0.326172 c -0.0195,0.046 -0.04387,0.07625 -0.0625,0.125 -0.0093,0.02438 -0.01767,0.05389 -0.02344,0.0918 -0.0058,0.03791 -0.0078,0.08453 -0.0078,0.144531 a 0.5,0.5 0 0 0 0.146485,0.353516 0.5,0.5 0 0 0 0.353515,0.146484 0.5,0.5 0 0 0 0.353516,-0.146484 c 0.057,-0.05725 0.110172,-0.119016 0.162109,-0.185547 0.05194,-0.06653 0.101594,-0.137719 0.152344,-0.214844 0.1015,-0.15425 0.206172,-0.330656 0.326172,-0.535156 0.241,-0.409 0.507766,-0.899094 0.759766,-1.371094 0.398999,-0.746999 0.614093,-1.18136 0.746093,-1.443359 0.133,0.262999 0.347094,0.69636 0.746094,1.443359 a 37.549,37.549 0 0 0 0.759766,1.371094 c 0.12,0.2045 0.222719,0.380906 0.324218,0.535156 0.05075,0.07713 0.10236,0.148313 0.154297,0.214844 0.05194,0.06653 0.10511,0.128297 0.162109,0.185547 a 0.5,0.5 0 0 0 0.353516,0.146484 0.5,0.5 0 0 0 0.353516,-0.146484 0.5,0.5 0 0 0 0.146484,-0.353516 c 0,-0.06 -0.0041,-0.106625 -0.0098,-0.144531 -0.0057,-0.03791 -0.01425,-0.06742 -0.02344,-0.0918 -0.01837,-0.04875 -0.04105,-0.079 -0.06055,-0.125 -0.039,-0.093 -0.08558,-0.196172 -0.142578,-0.326172 -0.0565,-0.13 -0.121781,-0.2845 -0.191406,-0.46875 -0.06962,-0.18425 -0.14375,-0.398531 -0.21875,-0.644531 -0.03375,-0.111625 -0.06298,-0.231145 -0.08984,-0.359375 -0.02687,-0.128231 -0.0513,-0.263719 -0.07227,-0.408203 -0.04194,-0.288969 -0.07341,-0.611016 -0.09766,-0.962891 -0.02425,-0.3518749 -0.0422,-0.7345163 -0.05664,-1.1464847 -0.01444,-0.4119683 -0.02461,-0.8530161 -0.03711,-1.3222656 A 16.18,16.18 0 0 0 -20.0033,7.3664125 c 0.0665,-0.019 0.123704,-0.026609 0.189454,-0.052734 0.03288,-0.013063 0.06883,-0.029938 0.107422,-0.056641 0.03859,-0.026703 0.08066,-0.063078 0.128906,-0.1113282 a 0.5,0.5 0 0 0 0.125,-0.2070312 0.5,0.5 0 0 0 0.01172,-0.2402344 0.5,0.5 0 0 0 -0.101562,-0.21875 0.5,0.5 0 0 0 -0.191406,-0.1464844 0.5,0.5 0 0 0 -0.238282,-0.039063 c 0,0 -0.7535,0.063 -1.6875,0.125 -0.466999,0.031 -0.979219,0.060734 -1.464843,0.083984 -0.485625,0.02325 -0.945641,0.039063 -1.306641,0.039063 -0.361249,0 -0.820781,-0.015813 -1.30664,-0.039063 -0.485859,-0.02325 -0.997657,-0.052984 -1.464844,-0.083984 -0.934374,-0.062 -1.6875,-0.125 -1.6875,-0.125 -0.016,-0.002 -0.03283,-0.00195 -0.04883,-0.00195 z" />
    <path
       id="path997"
       style="opacity:1;fill:#444444;fill-opacity:1;stroke-width:1.714"
       d="m -24.430995,2.2921945 a 2,2 0 0 0 -0.765625,0.1523438 2,2 0 0 0 -0.648437,0.4335937 2,2 0 0 0 -0.433594,0.6484375 2,2 0 0 0 -0.152344,0.765625 2,2 0 0 0 0.152344,0.765625 2,2 0 0 0 0.433594,0.6484375 2,2 0 0 0 0.648437,0.4335937 2,2 0 0 0 0.765625,0.1523438 2,2 0 0 0 0.765625,-0.1523438 2,2 0 0 0 0.648438,-0.4335937 2,2 0 0 0 0.433594,-0.6484375 2,2 0 0 0 0.152343,-0.765625 2,2 0 0 0 -0.152343,-0.765625 2,2 0 0 0 -0.433594,-0.6484375 2,2 0 0 0 -0.648438,-0.4335937 2,2 0 0 0 -0.765625,-0.1523438 z" />
  </g>
</svg>
