<?xml version="1.0" encoding="UTF-8" standalone="no"?>
<svg
   width="16"
   height="16"
   version="1.1"
   id="svg4"
   sodipodi:docname="utilities-tweak-tool-symbolic.svg"
   xml:space="preserve"
   inkscape:version="1.2.1 (9c6d41e410, 2022-07-14)"
   xmlns:inkscape="http://www.inkscape.org/namespaces/inkscape"
   xmlns:sodipodi="http://sodipodi.sourceforge.net/DTD/sodipodi-0.dtd"
   xmlns="http://www.w3.org/2000/svg"
   xmlns:svg="http://www.w3.org/2000/svg"><defs
     id="defs8" /><sodipodi:namedview
     id="namedview6"
     pagecolor="#ffffff"
     bordercolor="#000000"
     borderopacity="0.25"
     inkscape:showpageshadow="2"
     inkscape:pageopacity="0.0"
     inkscape:pagecheckerboard="0"
     inkscape:deskcolor="#d1d1d1"
     showgrid="false"
     inkscape:zoom="16.046875"
     inkscape:cx="-18.445959"
     inkscape:cy="11.996105"
     inkscape:current-layer="svg4" /><path
     d="M 15.659741,12.364413 12.000727,8.7053967 C 11.278921,7.9835909 10.2009,7.8429814 9.3322394,8.2710628 L 6.0013136,4.940144 V 2.9997072 L 2.0017036,7.5000001e-8 0.0018986,1.9998049 3.0016056,5.9994144 h 1.940437 l 3.330926,3.3309263 c -0.424958,0.8686613 -0.287472,1.9466813 0.434328,2.6684873 l 3.6590204,3.659017 c 0.456201,0.456207 1.193628,0.456207 1.646712,0 l 1.646712,-1.646712 c 0.453078,-0.456208 0.453078,-1.193636 0,-1.64672 z M 10.366514,7.0305657 c 0.884289,0 1.715455,0.3437099 2.340391,0.9686534 l 0.606192,0.6061856 C 13.8068,8.3898061 14.275505,8.089836 14.681713,7.683621 15.840976,6.5243581 16.234685,4.8932741 15.865972,3.4121678 15.797223,3.1309414 15.444136,3.0340789 15.237906,3.2403092 L 12.913135,5.5650802 10.791472,5.2119876 10.43838,3.0903242 12.763149,0.76555318 c 0.206231,-0.2062303 0.106243,-0.5593228 -0.178103,-0.631189 -1.481106,-0.3655907 -3.1121971,0.02812 -4.2683374,1.18425912 -0.890535,0.8905346 -1.309247,2.0654182 -1.287374,3.2371792 l 2.5653722,2.565373 c 0.2531076,-0.059346 0.5155762,-0.09061 0.7718072,-0.09061 z M 7.1199516,9.5928087 5.3482506,7.8211078 0.5862176,12.586271 c -0.781173,0.781173 -0.781173,2.046675 0,2.827849 0.781174,0.781173 2.046676,0.781173 2.827849,0 l 3.862123,-3.862123 c -0.23748,-0.621814 -0.309345,-1.299873 -0.156238,-1.9591883 z m -5.118248,5.1557503 c -0.412461,0 -0.749925,-0.337471 -0.749925,-0.749925 0,-0.415591 0.334341,-0.749932 0.749925,-0.749932 0.415583,0 0.749924,0.334341 0.749924,0.749932 0,0.412454 -0.334341,0.749925 -0.749924,0.749925 z"
     id="path291"
     style="fill:#444444;fill-opacity:1;stroke-width:0.031247" /></svg>
