<?xml version="1.0" encoding="UTF-8" standalone="no"?>
<svg
   width="32"
   height="32"
   id="svg2"
   version="1.1"
   sodipodi:docname="text-x-erlang.svg"
   inkscape:version="1.1 (c68e22c387, 2021-05-23)"
   xmlns:inkscape="http://www.inkscape.org/namespaces/inkscape"
   xmlns:sodipodi="http://sodipodi.sourceforge.net/DTD/sodipodi-0.dtd"
   xmlns:xlink="http://www.w3.org/1999/xlink"
   xmlns="http://www.w3.org/2000/svg"
   xmlns:svg="http://www.w3.org/2000/svg"
   xmlns:rdf="http://www.w3.org/1999/02/22-rdf-syntax-ns#"
   xmlns:cc="http://creativecommons.org/ns#"
   xmlns:dc="http://purl.org/dc/elements/1.1/">
  <sodipodi:namedview
     pagecolor="#ffffff"
     bordercolor="#666666"
     borderopacity="1"
     objecttolerance="10"
     gridtolerance="10"
     guidetolerance="10"
     inkscape:pageopacity="0"
     inkscape:pageshadow="2"
     inkscape:window-width="1920"
     inkscape:window-height="1001"
     id="namedview47"
     showgrid="false"
     inkscape:zoom="20.85965"
     inkscape:cx="6.4478551"
     inkscape:cy="15.316652"
     inkscape:window-x="0"
     inkscape:window-y="0"
     inkscape:window-maximized="1"
     inkscape:current-layer="svg2"
     inkscape:document-rotation="0"
     inkscape:pagecheckerboard="0" />
  <defs
     id="defs4">
    <linearGradient
       id="linearGradient902">
      <stop
         id="stop898"
         offset="0"
         style="stop-color:#770087;stop-opacity:1;" />
      <stop
         id="stop900"
         offset="1"
         style="stop-color:#452981;stop-opacity:1" />
    </linearGradient>
    <linearGradient
       id="linearGradient899">
      <stop
         id="stop895"
         style="stop-color:#f282f1;stop-opacity:1"
         offset="0" />
      <stop
         id="stop897"
         style="stop-color:#a56de2;stop-opacity:1"
         offset="1" />
    </linearGradient>
    <linearGradient
       id="linearGradient916">
      <stop
         id="stop912"
         style="stop-color:#ffffff;stop-opacity:1"
         offset="0" />
      <stop
         id="stop914"
         style="stop-color:#fafafa;stop-opacity:1"
         offset="1" />
    </linearGradient>
    <linearGradient
       id="linearGradient3688-166-749-654">
      <stop
         id="stop3088"
         style="stop-color:#181818;stop-opacity:1"
         offset="0" />
      <stop
         id="stop3090"
         style="stop-color:#181818;stop-opacity:0"
         offset="1" />
    </linearGradient>
    <linearGradient
       id="linearGradient3688-464-309-604">
      <stop
         id="stop3094"
         style="stop-color:#181818;stop-opacity:1"
         offset="0" />
      <stop
         id="stop3096"
         style="stop-color:#181818;stop-opacity:0"
         offset="1" />
    </linearGradient>
    <linearGradient
       id="linearGradient3702-501-757-795">
      <stop
         id="stop3100"
         style="stop-color:#181818;stop-opacity:0"
         offset="0" />
      <stop
         id="stop3102"
         style="stop-color:#181818;stop-opacity:1"
         offset="0.5" />
      <stop
         id="stop3104"
         style="stop-color:#181818;stop-opacity:0"
         offset="1" />
    </linearGradient>
    <radialGradient
       xlink:href="#linearGradient3688-166-749-654"
       id="radialGradient4730"
       gradientUnits="userSpaceOnUse"
       gradientTransform="matrix(3.2060542,2.6349059e-7,-8.2185947e-8,1.0000077,36.981009,15.99962)"
       cx="4.9964824"
       cy="43.5"
       fx="4.9964824"
       fy="43.5"
       r="2.5" />
    <radialGradient
       xlink:href="#linearGradient3688-464-309-604"
       id="radialGradient4732"
       gradientUnits="userSpaceOnUse"
       gradientTransform="matrix(3.163875,0,0,0.99999995,-29.702994,-103.00012)"
       cx="4.9929786"
       cy="43.5"
       fx="4.9929786"
       fy="43.5"
       r="2.5" />
    <linearGradient
       xlink:href="#linearGradient3702-501-757-795"
       id="linearGradient4734"
       gradientUnits="userSpaceOnUse"
       gradientTransform="matrix(1.3928572,0,0,0.71428561,-0.0214163,28.42862)"
       x1="25.058096"
       y1="47.027729"
       x2="25.058096"
       y2="39.999443" />
    <linearGradient
       gradientTransform="matrix(1.4324324,0,0,1.4362832,-7.3783796,-7.3995521)"
       gradientUnits="userSpaceOnUse"
       xlink:href="#linearGradient3924-2-2-5-8"
       id="linearGradient3381-5-4"
       y2="46.230125"
       x2="38.660378"
       y1="5.8481169"
       x1="38.660378" />
    <linearGradient
       id="linearGradient3924-2-2-5-8">
      <stop
         offset="0"
         style="stop-color:#ffffff;stop-opacity:1"
         id="stop3926-9-4-9-6" />
      <stop
         offset="0.06316455"
         style="stop-color:#ffffff;stop-opacity:0.23529412"
         id="stop3928-9-8-6-5" />
      <stop
         offset="0.95056331"
         style="stop-color:#ffffff;stop-opacity:0.15686275"
         id="stop3930-3-5-1-7" />
      <stop
         offset="1"
         style="stop-color:#ffffff;stop-opacity:0.39215687"
         id="stop3932-8-0-4-8" />
    </linearGradient>
    <linearGradient
       gradientTransform="matrix(0.47054764,0,0,0.47457626,-60.688645,-0.1484071)"
       gradientUnits="userSpaceOnUse"
       xlink:href="#linearGradient916"
       id="linearGradient5809"
       y2="55.027"
       x2="161.97743"
       y1="10.027002"
       x1="161.97743" />
    <linearGradient
       y2="63.027"
       x2="161.97743"
       y1="5.1520023"
       x1="161.97743"
       gradientTransform="matrix(0.4705882,0,0,0.47457626,-60.695255,-0.1484071)"
       gradientUnits="userSpaceOnUse"
       id="linearGradient910"
       xlink:href="#linearGradient899" />
    <linearGradient
       gradientUnits="userSpaceOnUse"
       y2="60"
       x2="32"
       y1="0"
       x1="32"
       id="linearGradient904"
       xlink:href="#linearGradient902" />
    <linearGradient
       y2="63.027"
       x2="161.97743"
       y1="5.1520023"
       x1="161.97743"
       gradientTransform="matrix(0.94117646,0,0,0.94915254,-73.044014,10.801587)"
       gradientUnits="userSpaceOnUse"
       id="linearGradient910-3"
       xlink:href="#linearGradient899" />
    <linearGradient
       y2="63.027"
       x2="161.97743"
       y1="5.1520023"
       x1="161.97743"
       gradientTransform="matrix(0.47054764,0,0,0.47457626,-76.305129,-44.360347)"
       gradientUnits="userSpaceOnUse"
       id="linearGradient910-5"
       xlink:href="#linearGradient899" />
    <filter
       inkscape:collect="always"
       style="color-interpolation-filters:sRGB"
       id="filter1218"
       x="-0.00052002417"
       width="1.00104"
       y="-0.00044569657"
       height="1.0008914">
      <feGaussianBlur
         inkscape:collect="always"
         stdDeviation="0.0051997931"
         id="feGaussianBlur1220" />
    </filter>
  </defs>
  <metadata
     id="metadata7">
    <rdf:RDF>
      <cc:Work
         rdf:about="">
        <dc:format>image/svg+xml</dc:format>
        <dc:type
           rdf:resource="http://purl.org/dc/dcmitype/StillImage" />
      </cc:Work>
    </rdf:RDF>
  </metadata>
  <rect
     width="23.997931"
     height="28"
     rx="0"
     ry="0"
     x="4.0010357"
     y="2.7520487"
     id="rect4897-1"
     style="opacity:0.2;vector-effect:none;fill:#000000;fill-opacity:1;stroke:none;stroke-width:0.472558;stroke-linecap:butt;stroke-linejoin:miter;stroke-miterlimit:4;stroke-dasharray:none;stroke-dashoffset:0;stroke-opacity:1;filter:url(#filter1218)" />
  <rect
     width="24"
     height="28"
     rx="0"
     ry="0"
     x="4"
     y="2"
     id="rect4897"
     style="opacity:1;vector-effect:none;fill:#eeeeee;fill-opacity:1;stroke:none;stroke-width:0.472578;stroke-linecap:butt;stroke-linejoin:miter;stroke-miterlimit:4;stroke-dasharray:none;stroke-dashoffset:0;stroke-opacity:1" />
  <path
     d="m 8,6.2417159 h 1.5075391 z m 1.7286435,0 h 1.4070355 z m 1.6281415,0 h 1.24623 z m 1.447236,0 h 0.542714 z m 0.76382,0 h 1.206029 z m 1.447235,0 h 3.17588 z m 3.376884,0 h 2.432161 z m 2.633167,0 h 0.743719 z M 8,7.7054584 h 2.351759 z m 2.613067,0 h 1.125626 z m 1.326633,0 h 0.562814 z m 0.78392,0 h 1.025125 z m 1.246229,0 h 1.045227 z m 1.246233,0 h 1.668341 z m 1.889445,0 h 2.170856 z m 2.37186,0 h 1.447237 z m 1.648242,0 h 0.361809 z M 8,9.1589792 h 1.9899506 z m 2.190955,0 h 3.256282 z m 3.457287,0 h 1.58794 z m 1.788945,0 h 1.487437 z m 1.688443,0 h 1.26633 z m 1.467334,0 1.989952,0.020446 z m 2.170855,0.020446 H 24 Z M 8,10.632945 h 2.753771 z m 2.974877,0 h 2.974873 z m 3.175878,0 h 1.18593 z m 1.386934,0 h 2.79397 z m 2.974874,0 h 1.909549 z m 2.130654,0 h 0.763818 z m 0.964823,0 h 0.422111 z m 0.643217,0 h 1.18593 z M 8,12.096689 h 1.0251255 z m 1.3467342,0 H 13.14573 Z M 8,14.536261 h 1.5075391 z m 1.7286435,0 h 1.3869355 z m 1.6281415,0 h 1.24623 z m 1.447236,0 h 0.542714 z m 0.76382,0 h 1.206029 z m 1.447235,0 h 3.155778 z m 3.376884,0 h 2.412061 z m 2.613065,0 h 0.763821 z m 0.964825,0 h 1.809045 z M 8,16.000002 h 2.532665 z m 2.73367,0 h 2.713567 z m 2.914572,0 h 1.045227 z m 1.246232,0 h 2.552764 z m 2.753768,0 h 3.216081 z m 3.437185,0 h 1.18593 z M 8,17.463744 h 2.753771 z m 2.974877,0 h 2.974873 z m 3.175878,0 h 1.18593 z m 1.386934,0 h 2.79397 z m 2.974874,0 h 1.909549 z m 2.130654,0 h 0.763818 z m 0.964823,0 h 0.422111 z m 0.643217,0 h 1.18593 z M 8,18.927487 h 2.351759 z m 2.613067,0 h 1.125626 z m 1.326633,0 h 0.562814 z m 0.78392,0 h 1.025125 z m 1.246229,0 h 1.045227 z m 1.246233,0 h 1.668341 z m 1.889445,0 h 2.170856 z m 2.37186,0 h 1.447237 z m 1.648242,0 h 0.361809 z M 8,21.356838 h 1.9899506 z m 2.190955,0 h 3.256282 z m 3.457287,0 h 1.58794 z m 1.788945,0 h 1.487437 z m 1.688443,0 h 1.26633 z m 1.467334,0 1.989952,0.02043 z m 2.170855,0.02043 H 24 Z M 8,22.830799 h 2.351759 z m 2.613067,0 h 1.125626 z m 1.326633,0 h 0.562814 z m 0.78392,0 h 1.025125 z m 1.246229,0 h 1.045227 z m 1.246233,0 h 1.668341 z m 1.889445,0 h 2.170856 z m 2.37186,0 h 1.447237 z m 1.648242,0 h 0.361809 z M 8,24.294542 h 2.492464 z m 2.713569,0 h 0.78392 z m 0.984924,0 h 1.788945 z m 1.98995,0 h 2.633166 z m 2.85427,0 h 1.788946 z m 1.96985,0 h 0.38191 z m 0.582915,0 h 2.271357 z m 2.512562,0 h 1.18593 z M 8,25.758284 h 2.492464 z m 2.713569,0 h 1.125628 z m 1.326633,0 h 1.768844 z m 1.96985,0 h 1.909547 z m 2.130652,0 h 0.763819 z m 0.964823,0 h 0.422112 z m 0.643217,0 h 1.185932 z"
     id="path3475"
     style="opacity:0.4;fill:none;stroke:#000000;stroke-width:0.483432px;stroke-linecap:butt;stroke-linejoin:miter;stroke-opacity:1"
     inkscape:connector-curvature="0" />
  <rect
     y="6"
     x="0"
     height="8"
     width="18"
     id="rect7379"
     style="opacity:1;fill:#501616;fill-opacity:1;stroke:none;stroke-width:0.428245" />
  <g
     aria-label="erlang"
     id="text3957"
     style="font-size:5.33333px;line-height:1.25">
    <path
       d="M 3.5976595,9.8932295 V 10.127604 H 1.3945359 q 0.03125,0.494792 0.2968748,0.755208 0.268229,0.257813 0.7447912,0.257813 0.2760415,0 0.5338539,-0.06771 0.2604165,-0.06771 0.5156246,-0.203125 v 0.453125 q -0.2578123,0.109375 -0.5286455,0.166667 -0.2708331,0.05729 -0.5494788,0.05729 -0.6979163,0 -1.1067702,-0.406249 -0.40624974,-0.40625 -0.40624974,-1.098958 0,-0.7161455 0.38541644,-1.1354161 0.3880206,-0.4218748 1.0442702,-0.4218748 0.5885413,0 0.929687,0.3802082 0.3437497,0.3776039 0.3437497,1.0286452 z M 3.1184932,9.7526046 Q 3.1132848,9.3593756 2.8971391,9.1250008 2.6835976,8.8906259 2.3294311,8.8906259 q -0.4010414,0 -0.6432287,0.2265624 -0.2395832,0.2265623 -0.2760415,0.6380204 z"
       style="fill:#ffffff"
       id="path10195" />
    <path
       d="M 6.0742206,9.002605 Q 5.9934915,8.95573 5.8971374,8.9348967 q -0.09375,-0.023437 -0.2083332,-0.023437 -0.4062498,0 -0.6249996,0.2656249 -0.2161457,0.2630206 -0.2161457,0.757812 V 11.471354 H 4.3658883 V 8.5546886 H 4.8476589 V 9.0078133 Q 4.9987004,8.7421885 5.2408878,8.6145844 5.4830751,8.4843761 5.8294291,8.4843761 q 0.049479,0 0.1093749,0.00781 0.059896,0.00521 0.1328125,0.018229 z"
       style="fill:#ffffff"
       id="path10197" />
    <path
       d="M 6.5768245,7.4192726 H 7.0559909 V 11.471354 H 6.5768245 Z"
       style="fill:#ffffff"
       id="path10199" />
    <path
       d="m 9.3841146,10.005209 q -0.5807288,0 -0.804687,0.132812 -0.2239582,0.132812 -0.2239582,0.453125 0,0.255208 0.1666666,0.406249 0.1692707,0.148438 0.458333,0.148438 0.3984373,0 0.6380205,-0.28125 0.2421873,-0.283854 0.2421873,-0.752604 v -0.10677 z M 10.339843,9.807292 v 1.664062 H 9.8606768 v -0.442709 q -0.1640624,0.265625 -0.4088539,0.393229 -0.2447915,0.125 -0.598958,0.125 -0.4479164,0 -0.7135412,-0.25 Q 7.876303,11.04427 7.876303,10.622396 q 0,-0.492188 0.3281248,-0.7421874 0.330729,-0.2499998 0.9843744,-0.2499998 h 0.6718746 v -0.046875 q 0,-0.3307289 -0.2187498,-0.5104163 -0.2161458,-0.1822916 -0.6093747,-0.1822916 -0.2499998,0 -0.4869789,0.059896 -0.236979,0.059896 -0.4557289,0.1796874 V 8.687501 q 0.2630207,-0.1015624 0.5104164,-0.1510416 0.2473957,-0.052083 0.4817706,-0.052083 0.6328121,0 0.9453115,0.3281248 0.3125,0.3281249 0.3125,0.9947911 z"
       style="fill:#ffffff"
       id="path10201" />
    <path
       d="M 13.751299,9.7109379 V 11.471354 H 13.272133 V 9.7265629 q 0,-0.4140622 -0.161458,-0.6197913 -0.161458,-0.205729 -0.484375,-0.205729 -0.388021,0 -0.611979,0.2473956 -0.223958,0.2473957 -0.223958,0.6744788 v 1.648437 h -0.48177 V 8.5546886 h 0.48177 v 0.4531247 q 0.171875,-0.2630206 0.403646,-0.3932289 0.234375,-0.1302083 0.539062,-0.1302083 0.502604,0 0.760416,0.3124999 0.257812,0.3098956 0.257812,0.9140619 z"
       style="fill:#ffffff"
       id="path10203" />
    <path
       d="m 16.626297,9.9791669 q 0,-0.520833 -0.216145,-0.8072912 -0.213542,-0.2864581 -0.601562,-0.2864581 -0.385417,0 -0.601563,0.2864581 -0.213541,0.2864582 -0.213541,0.8072912 0,0.5182291 0.213541,0.8046871 0.216146,0.286458 0.601563,0.286458 0.38802,0 0.601562,-0.286458 0.216145,-0.286458 0.216145,-0.8046871 z m 0.479167,1.1302081 q 0,0.744791 -0.330729,1.10677 -0.330729,0.364583 -1.01302,0.364583 -0.252604,0 -0.476563,-0.03906 -0.223958,-0.03646 -0.434895,-0.114583 v -0.466145 q 0.210937,0.114583 0.416666,0.16927 0.205729,0.05469 0.419271,0.05469 0.471354,0 0.705729,-0.247396 0.234374,-0.244791 0.234374,-0.742187 v -0.236979 q -0.148437,0.257812 -0.380208,0.385416 -0.23177,0.127605 -0.554687,0.127605 -0.536458,0 -0.864583,-0.408854 -0.328124,-0.408854 -0.328124,-1.0833331 0,-0.6770829 0.328124,-1.0859368 0.328125,-0.408854 0.864583,-0.408854 0.322917,0 0.554687,0.1276041 0.231771,0.1276041 0.380208,0.3854165 V 8.5546886 h 0.479167 z"
       style="fill:#ffffff"
       id="path10205" />
  </g>
</svg>
