<?xml version="1.0" encoding="UTF-8" standalone="no"?>
<svg
   width="32"
   height="32"
   id="svg2"
   version="1.1"
   sodipodi:docname="text-css.svg"
   inkscape:version="1.1 (c68e22c387, 2021-05-23)"
   xmlns:inkscape="http://www.inkscape.org/namespaces/inkscape"
   xmlns:sodipodi="http://sodipodi.sourceforge.net/DTD/sodipodi-0.dtd"
   xmlns:xlink="http://www.w3.org/1999/xlink"
   xmlns="http://www.w3.org/2000/svg"
   xmlns:svg="http://www.w3.org/2000/svg"
   xmlns:rdf="http://www.w3.org/1999/02/22-rdf-syntax-ns#"
   xmlns:cc="http://creativecommons.org/ns#"
   xmlns:dc="http://purl.org/dc/elements/1.1/">
  <sodipodi:namedview
     pagecolor="#ffffff"
     bordercolor="#666666"
     borderopacity="1"
     objecttolerance="10"
     gridtolerance="10"
     guidetolerance="10"
     inkscape:pageopacity="0"
     inkscape:pageshadow="2"
     inkscape:window-width="1920"
     inkscape:window-height="1000"
     id="namedview47"
     showgrid="false"
     inkscape:zoom="20.85965"
     inkscape:cx="6.4238853"
     inkscape:cy="15.340622"
     inkscape:window-x="0"
     inkscape:window-y="0"
     inkscape:window-maximized="1"
     inkscape:current-layer="svg2"
     inkscape:document-rotation="0"
     inkscape:pagecheckerboard="0" />
  <defs
     id="defs4">
    <linearGradient
       id="linearGradient902">
      <stop
         id="stop898"
         offset="0"
         style="stop-color:#770087;stop-opacity:1;" />
      <stop
         id="stop900"
         offset="1"
         style="stop-color:#452981;stop-opacity:1" />
    </linearGradient>
    <linearGradient
       id="linearGradient899">
      <stop
         id="stop895"
         style="stop-color:#f282f1;stop-opacity:1"
         offset="0" />
      <stop
         id="stop897"
         style="stop-color:#a56de2;stop-opacity:1"
         offset="1" />
    </linearGradient>
    <linearGradient
       id="linearGradient916">
      <stop
         id="stop912"
         style="stop-color:#ffffff;stop-opacity:1"
         offset="0" />
      <stop
         id="stop914"
         style="stop-color:#fafafa;stop-opacity:1"
         offset="1" />
    </linearGradient>
    <linearGradient
       id="linearGradient3688-166-749-654">
      <stop
         id="stop3088"
         style="stop-color:#181818;stop-opacity:1"
         offset="0" />
      <stop
         id="stop3090"
         style="stop-color:#181818;stop-opacity:0"
         offset="1" />
    </linearGradient>
    <linearGradient
       id="linearGradient3688-464-309-604">
      <stop
         id="stop3094"
         style="stop-color:#181818;stop-opacity:1"
         offset="0" />
      <stop
         id="stop3096"
         style="stop-color:#181818;stop-opacity:0"
         offset="1" />
    </linearGradient>
    <linearGradient
       id="linearGradient3702-501-757-795">
      <stop
         id="stop3100"
         style="stop-color:#181818;stop-opacity:0"
         offset="0" />
      <stop
         id="stop3102"
         style="stop-color:#181818;stop-opacity:1"
         offset="0.5" />
      <stop
         id="stop3104"
         style="stop-color:#181818;stop-opacity:0"
         offset="1" />
    </linearGradient>
    <radialGradient
       xlink:href="#linearGradient3688-166-749-654"
       id="radialGradient4730"
       gradientUnits="userSpaceOnUse"
       gradientTransform="matrix(3.2060542,2.6349059e-7,-8.2185947e-8,1.0000077,36.981009,15.99962)"
       cx="4.9964824"
       cy="43.5"
       fx="4.9964824"
       fy="43.5"
       r="2.5" />
    <radialGradient
       xlink:href="#linearGradient3688-464-309-604"
       id="radialGradient4732"
       gradientUnits="userSpaceOnUse"
       gradientTransform="matrix(3.163875,0,0,0.99999995,-29.702994,-103.00012)"
       cx="4.9929786"
       cy="43.5"
       fx="4.9929786"
       fy="43.5"
       r="2.5" />
    <linearGradient
       xlink:href="#linearGradient3702-501-757-795"
       id="linearGradient4734"
       gradientUnits="userSpaceOnUse"
       gradientTransform="matrix(1.3928572,0,0,0.71428561,-0.0214163,28.42862)"
       x1="25.058096"
       y1="47.027729"
       x2="25.058096"
       y2="39.999443" />
    <linearGradient
       gradientTransform="matrix(1.4324324,0,0,1.4362832,-7.3783796,-7.3995521)"
       gradientUnits="userSpaceOnUse"
       xlink:href="#linearGradient3924-2-2-5-8"
       id="linearGradient3381-5-4"
       y2="46.230125"
       x2="38.660378"
       y1="5.8481169"
       x1="38.660378" />
    <linearGradient
       id="linearGradient3924-2-2-5-8">
      <stop
         offset="0"
         style="stop-color:#ffffff;stop-opacity:1"
         id="stop3926-9-4-9-6" />
      <stop
         offset="0.06316455"
         style="stop-color:#ffffff;stop-opacity:0.23529412"
         id="stop3928-9-8-6-5" />
      <stop
         offset="0.95056331"
         style="stop-color:#ffffff;stop-opacity:0.15686275"
         id="stop3930-3-5-1-7" />
      <stop
         offset="1"
         style="stop-color:#ffffff;stop-opacity:0.39215687"
         id="stop3932-8-0-4-8" />
    </linearGradient>
    <linearGradient
       gradientTransform="matrix(0.47054764,0,0,0.47457626,-60.688645,-0.1484071)"
       gradientUnits="userSpaceOnUse"
       xlink:href="#linearGradient916"
       id="linearGradient5809"
       y2="55.027"
       x2="161.97743"
       y1="10.027002"
       x1="161.97743" />
    <linearGradient
       y2="63.027"
       x2="161.97743"
       y1="5.1520023"
       x1="161.97743"
       gradientTransform="matrix(0.4705882,0,0,0.47457626,-60.695255,-0.1484071)"
       gradientUnits="userSpaceOnUse"
       id="linearGradient910"
       xlink:href="#linearGradient899" />
    <linearGradient
       gradientUnits="userSpaceOnUse"
       y2="60"
       x2="32"
       y1="0"
       x1="32"
       id="linearGradient904"
       xlink:href="#linearGradient902" />
    <linearGradient
       y2="63.027"
       x2="161.97743"
       y1="5.1520023"
       x1="161.97743"
       gradientTransform="matrix(0.94117646,0,0,0.94915254,-73.044014,10.801587)"
       gradientUnits="userSpaceOnUse"
       id="linearGradient910-3"
       xlink:href="#linearGradient899" />
    <linearGradient
       y2="63.027"
       x2="161.97743"
       y1="5.1520023"
       x1="161.97743"
       gradientTransform="matrix(0.47054764,0,0,0.47457626,-76.305129,-44.360347)"
       gradientUnits="userSpaceOnUse"
       id="linearGradient910-5"
       xlink:href="#linearGradient899" />
    <filter
       inkscape:collect="always"
       style="color-interpolation-filters:sRGB"
       id="filter1218"
       x="-0.00052002417"
       width="1.00104"
       y="-0.00044569657"
       height="1.0008914">
      <feGaussianBlur
         inkscape:collect="always"
         stdDeviation="0.0051997931"
         id="feGaussianBlur1220" />
    </filter>
  </defs>
  <metadata
     id="metadata7">
    <rdf:RDF>
      <cc:Work
         rdf:about="">
        <dc:format>image/svg+xml</dc:format>
        <dc:type
           rdf:resource="http://purl.org/dc/dcmitype/StillImage" />
        <dc:title />
      </cc:Work>
    </rdf:RDF>
  </metadata>
  <rect
     width="23.997931"
     height="28"
     rx="0"
     ry="0"
     x="4.0010357"
     y="2.7520487"
     id="rect4897-1"
     style="opacity:0.2;vector-effect:none;fill:#000000;fill-opacity:1;stroke:none;stroke-width:0.472558;stroke-linecap:butt;stroke-linejoin:miter;stroke-miterlimit:4;stroke-dasharray:none;stroke-dashoffset:0;stroke-opacity:1;filter:url(#filter1218)" />
  <rect
     width="24"
     height="28"
     rx="0"
     ry="0"
     x="4"
     y="2"
     id="rect4897"
     style="opacity:1;vector-effect:none;fill:#eeeeee;fill-opacity:1;stroke:none;stroke-width:0.472578;stroke-linecap:butt;stroke-linejoin:miter;stroke-miterlimit:4;stroke-dasharray:none;stroke-dashoffset:0;stroke-opacity:1" />
  <path
     d="m 8,6.2417159 h 1.5075391 z m 1.7286435,0 h 1.4070355 z m 1.6281415,0 h 1.24623 z m 1.447236,0 h 0.542714 z m 0.76382,0 h 1.206029 z m 1.447235,0 h 3.17588 z m 3.376884,0 h 2.432161 z m 2.633167,0 h 0.743719 z M 8,7.7054584 h 2.351759 z m 2.613067,0 h 1.125626 z m 1.326633,0 h 0.562814 z m 0.78392,0 h 1.025125 z m 1.246229,0 h 1.045227 z m 1.246233,0 h 1.668341 z m 1.889445,0 h 2.170856 z m 2.37186,0 h 1.447237 z m 1.648242,0 h 0.361809 z M 8,9.1589792 h 1.9899506 z m 2.190955,0 h 3.256282 z m 3.457287,0 h 1.58794 z m 1.788945,0 h 1.487437 z m 1.688443,0 h 1.26633 z m 1.467334,0 1.989952,0.020446 z m 2.170855,0.020446 H 24 Z M 8,10.632945 h 2.753771 z m 2.974877,0 h 2.974873 z m 3.175878,0 h 1.18593 z m 1.386934,0 h 2.79397 z m 2.974874,0 h 1.909549 z m 2.130654,0 h 0.763818 z m 0.964823,0 h 0.422111 z m 0.643217,0 h 1.18593 z M 8,12.096689 h 1.0251255 z m 1.3467342,0 H 13.14573 Z M 8,14.536261 h 1.5075391 z m 1.7286435,0 h 1.3869355 z m 1.6281415,0 h 1.24623 z m 1.447236,0 h 0.542714 z m 0.76382,0 h 1.206029 z m 1.447235,0 h 3.155778 z m 3.376884,0 h 2.412061 z m 2.613065,0 h 0.763821 z m 0.964825,0 h 1.809045 z M 8,16.000002 h 2.532665 z m 2.73367,0 h 2.713567 z m 2.914572,0 h 1.045227 z m 1.246232,0 h 2.552764 z m 2.753768,0 h 3.216081 z m 3.437185,0 h 1.18593 z M 8,17.463744 h 2.753771 z m 2.974877,0 h 2.974873 z m 3.175878,0 h 1.18593 z m 1.386934,0 h 2.79397 z m 2.974874,0 h 1.909549 z m 2.130654,0 h 0.763818 z m 0.964823,0 h 0.422111 z m 0.643217,0 h 1.18593 z M 8,18.927487 h 2.351759 z m 2.613067,0 h 1.125626 z m 1.326633,0 h 0.562814 z m 0.78392,0 h 1.025125 z m 1.246229,0 h 1.045227 z m 1.246233,0 h 1.668341 z m 1.889445,0 h 2.170856 z m 2.37186,0 h 1.447237 z m 1.648242,0 h 0.361809 z M 8,21.356838 h 1.9899506 z m 2.190955,0 h 3.256282 z m 3.457287,0 h 1.58794 z m 1.788945,0 h 1.487437 z m 1.688443,0 h 1.26633 z m 1.467334,0 1.989952,0.02043 z m 2.170855,0.02043 H 24 Z M 8,22.830799 h 2.351759 z m 2.613067,0 h 1.125626 z m 1.326633,0 h 0.562814 z m 0.78392,0 h 1.025125 z m 1.246229,0 h 1.045227 z m 1.246233,0 h 1.668341 z m 1.889445,0 h 2.170856 z m 2.37186,0 h 1.447237 z m 1.648242,0 h 0.361809 z M 8,24.294542 h 2.492464 z m 2.713569,0 h 0.78392 z m 0.984924,0 h 1.788945 z m 1.98995,0 h 2.633166 z m 2.85427,0 h 1.788946 z m 1.96985,0 h 0.38191 z m 0.582915,0 h 2.271357 z m 2.512562,0 h 1.18593 z M 8,25.758284 h 2.492464 z m 2.713569,0 h 1.125628 z m 1.326633,0 h 1.768844 z m 1.96985,0 h 1.909547 z m 2.130652,0 h 0.763819 z m 0.964823,0 h 0.422112 z m 0.643217,0 h 1.185932 z"
     id="path3475"
     style="opacity:0.4;fill:none;stroke:#000000;stroke-width:0.483432px;stroke-linecap:butt;stroke-linejoin:miter;stroke-opacity:1"
     inkscape:connector-curvature="0" />
  <path
     id="rect7379"
     style="opacity:1;fill:#002b36;stroke-width:0.428245"
     d="m 0,6 h 18 v 8 H 0 Z" />
  <g
     aria-label="CSS"
     id="text1295"
     style="font-size:6.66667px;line-height:1.25">
    <path
       d="M 6.7327464,7.9410795 V 8.6344392 Q 6.400715,8.3251943 6.0231107,8.1721994 5.6487615,8.0192046 5.2255842,8.0192046 q -0.8333337,0 -1.2760422,0.5110679 -0.4427086,0.5078128 -0.4427086,1.4713545 0,0.960287 0.4427086,1.471355 0.4427085,0.507813 1.2760422,0.507813 0.4231773,0 0.7975265,-0.152995 0.3776043,-0.152995 0.7096357,-0.46224 v 0.68685 q -0.3450522,0.234375 -0.7324222,0.351562 -0.3841148,0.117188 -0.8138025,0.117188 -1.1035161,0 -1.7382821,-0.673829 -0.6347659,-0.677083 -0.6347659,-1.845704 0,-1.1718752 0.6347659,-1.8457036 0.634766,-0.6770837 1.7382821,-0.6770837 0.4361982,0 0.8203129,0.1171876 0.38737,0.1139323 0.7259118,0.3450522 z"
       style="fill:#ffffff"
       id="path4535" />
    <path
       d="M 10.661785,7.7262357 V 8.367512 Q 10.287436,8.1884755 9.9554042,8.1005848 9.6233728,8.0126942 9.3141279,8.0126942 q -0.5371097,0 -0.8300786,0.2083334 -0.2897136,0.2083334 -0.2897136,0.5924482 0,0.3222658 0.1920574,0.4882815 0.1953125,0.1627605 0.7356774,0.263672 l 0.3971356,0.08138 q 0.7356779,0.139974 1.0839849,0.4947915 0.351563,0.351563 0.351563,0.944011 0,0.706381 -0.475261,1.070964 -0.472005,0.364584 -1.3867194,0.364584 -0.3450523,0 -0.7356774,-0.07813 -0.38737,-0.07813 -0.8040369,-0.23112 v -0.677084 q 0.4003908,0.22461 0.7845056,0.338542 0.3841148,0.113932 0.7552087,0.113932 0.5631513,0 0.869141,-0.221354 0.3059894,-0.221354 0.3059894,-0.631511 0,-0.358073 -0.221354,-0.559896 Q 9.828451,10.372721 9.3271487,10.27181 L 8.9267579,10.193685 Q 8.1910805,10.0472 7.8623043,9.7347002 7.5335281,9.4222 7.5335281,8.8655592 q 0,-0.6445316 0.4524741,-1.0156255 0.4557294,-0.371094 1.2532558,-0.371094 0.3417971,0 0.696615,0.061849 0.354818,0.061849 0.725912,0.185547 z"
       style="fill:#ffffff"
       id="path4537" />
    <path
       d="M 14.893557,7.7262357 V 8.367512 Q 14.519208,8.1884755 14.187177,8.1005848 13.855145,8.0126942 13.5459,8.0126942 q -0.537109,0 -0.830078,0.2083334 -0.289714,0.2083334 -0.289714,0.5924482 0,0.3222658 0.192057,0.4882815 0.195313,0.1627605 0.735678,0.263672 l 0.397136,0.08138 q 0.735677,0.139974 1.083984,0.4947915 0.351563,0.351563 0.351563,0.944011 0,0.706381 -0.475261,1.070964 -0.472005,0.364584 -1.386719,0.364584 -0.345052,0 -0.735677,-0.07813 -0.38737,-0.07813 -0.804037,-0.23112 v -0.677084 q 0.400391,0.22461 0.784505,0.338542 0.384115,0.113932 0.755209,0.113932 0.563151,0 0.869141,-0.221354 0.30599,-0.221354 0.30599,-0.631511 0,-0.358073 -0.221354,-0.559896 -0.2181,-0.201823 -0.719402,-0.302734 L 13.15853,10.193685 Q 12.422853,10.0472 12.094077,9.7347002 11.7653,9.4222 11.7653,8.8655592 q 0,-0.6445316 0.452475,-1.0156255 0.455729,-0.371094 1.253255,-0.371094 0.341798,0 0.696615,0.061849 0.354818,0.061849 0.725912,0.185547 z"
       style="fill:#ffffff"
       id="path4539" />
  </g>
</svg>
