<?xml version="1.0" encoding="UTF-8" standalone="no"?>
<svg
   height="32"
   version="1"
   viewBox="0 0 32 32"
   width="32"
   id="svg97"
   sodipodi:docname="application-x-rpm.svg"
   inkscape:version="1.2.1 (9c6d41e410, 2022-07-14)"
   xml:space="preserve"
   xmlns:inkscape="http://www.inkscape.org/namespaces/inkscape"
   xmlns:sodipodi="http://sodipodi.sourceforge.net/DTD/sodipodi-0.dtd"
   xmlns:xlink="http://www.w3.org/1999/xlink"
   xmlns="http://www.w3.org/2000/svg"
   xmlns:svg="http://www.w3.org/2000/svg"
   xmlns:rdf="http://www.w3.org/1999/02/22-rdf-syntax-ns#"
   xmlns:cc="http://creativecommons.org/ns#"
   xmlns:dc="http://purl.org/dc/elements/1.1/"><metadata
     id="metadata101"><rdf:RDF><cc:Work
         rdf:about=""><dc:format>image/svg+xml</dc:format><dc:type
           rdf:resource="http://purl.org/dc/dcmitype/StillImage" /><dc:title>
        elementary Icon Template
    </dc:title></cc:Work></rdf:RDF></metadata><sodipodi:namedview
     pagecolor="#ffffff"
     bordercolor="#666666"
     borderopacity="1"
     objecttolerance="10"
     gridtolerance="10"
     guidetolerance="10"
     inkscape:pageopacity="0"
     inkscape:pageshadow="2"
     inkscape:window-width="1920"
     inkscape:window-height="1002"
     id="namedview99"
     showgrid="false"
     inkscape:zoom="6.9532168"
     inkscape:cx="-48.179139"
     inkscape:cy="17.18629"
     inkscape:window-x="0"
     inkscape:window-y="0"
     inkscape:window-maximized="1"
     inkscape:current-layer="g95"
     inkscape:pagecheckerboard="0"
     inkscape:showpageshadow="2"
     inkscape:deskcolor="#d1d1d1" /><title
     id="title2">
        elementary Icon Template
    </title><defs
     id="defs75"><linearGradient
       id="linearGradient4728"><stop
         id="stop4720"
         stop-color="#dac196"
         offset="0"
         style="stop-color:#c7ae8e;stop-opacity:1" /><stop
         id="stop4722"
         stop-color="#c7ae8e"
         offset="0.23060136" /><stop
         id="stop4724"
         stop-color="#dac197"
         offset="0.23060136" /><stop
         id="stop4726"
         stop-color="#b19974"
         offset="1"
         style="stop-color:#dac197;stop-opacity:1" /></linearGradient><linearGradient
       id="f"><stop
         offset="0"
         stop-color="#997543"
         id="stop4" /><stop
         offset=".239"
         stop-color="#715d43"
         id="stop6" /><stop
         offset=".276"
         stop-color="#7b6241"
         id="stop8" /><stop
         offset="1"
         stop-color="#604c31"
         id="stop10" /></linearGradient><linearGradient
       id="g"><stop
         offset="0"
         id="stop13" /><stop
         offset="1"
         stop-opacity="0"
         id="stop15" /></linearGradient><linearGradient
       id="a"><stop
         offset="0"
         stop-color="#fff"
         id="stop18" /><stop
         offset=".084"
         stop-color="#fff"
         stop-opacity=".235"
         id="stop20" /><stop
         offset=".951"
         stop-color="#fff"
         stop-opacity=".157"
         id="stop22" /><stop
         offset="1"
         stop-color="#fff"
         stop-opacity=".392"
         id="stop24" /></linearGradient><linearGradient
       id="b"><stop
         offset="0"
         stop-color="#fff"
         id="stop27" /><stop
         offset=".036"
         stop-color="#fff"
         stop-opacity=".235"
         id="stop29" /><stop
         offset=".951"
         stop-color="#fff"
         stop-opacity=".157"
         id="stop31" /><stop
         offset="1"
         stop-color="#fff"
         stop-opacity=".392"
         id="stop33" /></linearGradient><linearGradient
       id="c"><stop
         offset="0"
         stop-color="#fff"
         id="stop36" /><stop
         offset=".302"
         stop-color="#fff"
         id="stop38" /><stop
         offset=".344"
         stop-color="#fff"
         stop-opacity=".643"
         id="stop40" /><stop
         offset="1"
         stop-color="#fff"
         stop-opacity=".391"
         id="stop42" /></linearGradient><linearGradient
       id="e"><stop
         offset="0"
         stop-color="#dac196"
         id="stop45" /><stop
         offset="0.23060136"
         stop-color="#c7ae8e"
         id="stop47" /><stop
         offset="0.23060136"
         stop-color="#dac197"
         id="stop49" /><stop
         offset="1"
         stop-color="#b19974"
         id="stop51" /></linearGradient><linearGradient
       id="h"><stop
         offset="0"
         stop-opacity="0"
         id="stop54" /><stop
         offset=".5"
         id="stop56" /><stop
         offset="1"
         stop-opacity="0"
         id="stop58" /></linearGradient><linearGradient
       id="d"><stop
         offset="0"
         stop-color="#fff"
         stop-opacity="0"
         id="stop61" /><stop
         offset="1"
         stop-color="#fff"
         stop-opacity="0"
         id="stop63" /></linearGradient><linearGradient
       gradientTransform="matrix(1.05405,0,0,0.21622,126.703,171.31)"
       gradientUnits="userSpaceOnUse"
       xlink:href="#a"
       id="p"
       x1="24"
       x2="24"
       y1="7.3470001"
       y2="43" /><linearGradient
       gradientTransform="matrix(1.05405,0,0,0.7027,126.703,176.635)"
       gradientUnits="userSpaceOnUse"
       xlink:href="#b"
       id="o"
       x1="24"
       x2="24"
       y1="5.5640001"
       y2="43" /><linearGradient
       gradientTransform="matrix(0.69999995,0,0,0.8245227,127.2,175.41605)"
       gradientUnits="userSpaceOnUse"
       xlink:href="#c"
       id="n"
       x1="26"
       x2="26"
       y1="22"
       y2="8" /><linearGradient
       gradientTransform="matrix(1.28223,0,0,1.17469,121.93,157.697)"
       gradientUnits="userSpaceOnUse"
       xlink:href="#d"
       id="m"
       x1="23.452"
       x2="43.007"
       y1="30.555"
       y2="45.933998" /><linearGradient
       gradientTransform="matrix(0.87553362,0,0,1.1237434,123.46757,164.85245)"
       gradientUnits="userSpaceOnUse"
       xlink:href="#linearGradient4728"
       id="l"
       x1="23.359486"
       x2="23.370872"
       y1="15.933548"
       y2="38.453457" /><linearGradient
       gradientTransform="translate(128,163)"
       gradientUnits="userSpaceOnUse"
       xlink:href="#f"
       id="q"
       x1="15.464"
       x2="15.464"
       y1="7.9759998"
       y2="45.042" /><radialGradient
       cx="5"
       cy="41.5"
       fx="5"
       fy="41.5"
       gradientTransform="matrix(0.4012,0,0,1.2,169.994,-254.8)"
       gradientUnits="userSpaceOnUse"
       xlink:href="#g"
       id="k"
       r="5" /><linearGradient
       gradientTransform="matrix(1.74414,0,0,1.0909,111.07,160.818)"
       gradientUnits="userSpaceOnUse"
       xlink:href="#h"
       id="j"
       x1="17.554001"
       x2="17.554001"
       y1="46"
       y2="35" /><radialGradient
       cx="5"
       cy="41.5"
       fx="5"
       fy="41.5"
       gradientTransform="matrix(0.4012,0,0,1.2,-134.006,-254.8)"
       gradientUnits="userSpaceOnUse"
       xlink:href="#g"
       id="i"
       r="5" /><linearGradient
       gradientTransform="matrix(1.2507624,0,0,1.555952,75.583213,130.05387)"
       gradientUnits="userSpaceOnUse"
       xlink:href="#e"
       id="l-7"
       x1="23.359486"
       x2="23.370872"
       y1="15.933548"
       y2="38.453457" /></defs><g
     transform="translate(-128,-179)"
     id="g95"><path
       d="m 133.76452,183.0197 h 20.14185 c 1.17582,0 1.705,-0.2071 2.043,0.72162 l 2.04983,5.77292 V 208.041 c 0,1.12067 0.0703,0.94965 -1.10617,0.94965 H 131.1063 c -1.17582,0 -1.10549,0.17102 -1.10549,-0.94965 v -18.52676 l 2.04983,-5.77292 c 0.32775,-0.90924 0.53874,-0.72162 1.71388,-0.72162 z"
       display="block"
       overflow="visible"
       style="display:block;overflow:visible;opacity:0.2;fill:#000000;fill-opacity:1;stroke-width:0.70195049;marker:none"
       id="path83-5"
       inkscape:connector-curvature="0" /><path
       d="m 133.76452,182.01971 h 20.14185 c 1.17582,0 1.70501,-0.20711 2.043,0.72161 l 2.04983,5.77292 v 18.52677 c 0,1.12066 0.0703,0.94964 -1.10617,0.94964 h -25.78674 c -1.17581,0 -1.10548,0.17102 -1.10548,-0.94964 v -18.52677 l 2.04983,-5.77292 c 0.32775,-0.90924 0.53874,-0.72161 1.71388,-0.72161 z"
       display="block"
       overflow="visible"
       style="display:block;overflow:visible;fill:url(#l);stroke-width:0.70195049;marker:none"
       id="path83"
       inkscape:connector-curvature="0" /><path
       d="m 142.6,182.01224 h 2.8 v 11.54331 c -0.2758,0 -0.5509,-0.63571 -0.8267,-0.63571 -0.2821,0 -0.5642,0.63571 -0.847,0.63571 -0.2268,0 -0.4543,-0.55655 -0.6811,-0.55655 -0.1484,0 -0.2968,0.55655 -0.4452,0.55655 z"
       overflow="visible"
       style="overflow:visible;opacity:0.3;fill:url(#n);stroke-width:0.75971431;marker:none"
       id="path87"
       inkscape:connector-curvature="0" /><g
       transform="matrix(0.02109123,0,0,0.02109123,143.41893,198.90352)"
       id="g394"><path
         d="m 242.1,26.14 c 12.57,-1.932 25.26,-3.344 37.97,-4.014 2.258,-0.538 4.594,-0.4281 6.901,-0.5105 18.04,-0.5753 36.1,-0.5493 54.13,0.2629 32.54,2.301 64.92,7.707 96.31,16.72 l -0.1329,0.1763 c -4.602,6.224 -9.218,12.44 -13.73,18.73 -1.352,0.2495 -2.536,-0.6058 -3.74,-1.036 -23.82,-9.827 -49.17,-15.53 -74.68,-18.62 -41.97,-4.298 -84.94,-0.8447 -125.2,12.07 -29.64,9.588 -58.27,24.37 -80.38,46.67 -15.67,16.02 -27.69,36.74 -29.33,59.45 -1.519,10.82 1.072,21.62 3.364,32.13 l -99.42,17.53 c -0.2403,-17.54 4.337,-34.9 11.62,-50.77 14.49,-30.9 39.62,-55.59 67.61,-74.49 18.93,-12.71 39.39,-23.08 60.65,-31.3 28.32,-11.07 57.98,-18.63 88.06,-22.99 z"
         style="fill:#040404"
         sodipodi:nodetypes="cccccccccccccccccc"
         id="path386" /><path
         d="m 423.6,57.5 c 4.513,-6.288 9.128,-12.5 13.73,-18.73 42.15,12.34 82.85,31.84 116.1,60.88 13.59,12.17 25.89,25.94 35.33,41.61 11.18,18.44 18.27,39.56 19.03,61.19 -33.06,-5.778 -66.1,-11.6 -99.16,-17.4 4.068,-12.94 4.103,-27.02 1.317,-40.23 -5.163,-22.82 -19.79,-42.41 -37.44,-57.28 -14.71,-12.38 -31.49,-22.3 -49.27,-29.56 z"
         style="fill:#d72123"
         id="path388" /><path
         d="m 301.7,148.6 c 1.946,-3.169 5.372,-5.696 9.269,-5.227 4.405,0.1127 7.799,3.752 8.711,7.872 l 310.8,55.28 -1.038,5.206 -310.7,-54.48 c -2.478,4.312 -8.228,6.539 -12.74,3.993 -3.131,-1.369 -4.2,-4.72 -5.613,-7.531 l -19.13,-3.065 0.8769,-5.381 z"
         sodipodi:nodetypes="ccccccccccc"
         id="path390" /><path
         d="m 156.1,299.5 0.1743,-77.35 32.9,0.0614 c 34.68,0.0648 42.48,0.5632 57.86,3.698 37.71,7.684 62.74,25.76 67.65,48.85 4.979,23.41 -13.56,44.79 -51.04,58.88 -13.48,5.067 -31.77,9.041 -46.31,10.07 l -6.231,0.4388 -0.1865,12.43 -0.1865,12.43 -2.212,0.3956 c -1.217,0.2176 -12.54,1.804 -25.17,3.526 -12.63,1.722 -23.96,3.307 -25.19,3.524 l -2.23,0.3938 z m 60.01,29.84 c 1.769,-0.4157 6.3,-2.234 10.07,-4.041 14.18,-6.795 24.53,-16.45 30.1,-28.09 4.309,-8.991 4.629,-17.43 1.027,-27.06 -4.125,-11.03 -15.91,-23.02 -29.19,-29.72 -4.374,-2.206 -13.08,-4.908 -15.8,-4.908 h -1.556 v 47.29 c 0,42.35 0.1115,47.29 1.067,47.29 0.5869,0 2.514,-0.3402 4.283,-0.7559 z m -202,-46.87 v -60.65 h 54.83 v 1.456 c 0,1.28 0.2694,1.401 2.227,0.9981 12.87,-2.647 32.27,-3.843 40.59,-2.5 2.889,0.466 7.351,1.561 9.916,2.433 5.431,1.847 15.09,6.023 15.08,6.522 -0.003,0.1885 -2.541,1.86 -5.641,3.714 -3.1,1.854 -9.715,5.957 -14.7,9.117 l -9.064,5.745 -2.566,-1.744 c -5.163,-3.508 -10.69,-4.839 -20.08,-4.839 -4.957,0 -10.08,0.3898 -12.16,0.925 l -3.598,0.925 v 98.55 h -54.83 z m 337.2,-0.0456 v -60.7 l 107.4,0.2996 c 109,0.304 112.3,0.3808 126.2,2.928 10.41,1.908 16.53,4.219 19.79,7.479 l 2.913,2.911 v 107.8 h -54.83 v -106.1 l -2.913,-1.252 c -2.549,-1.096 -5.417,-1.283 -22.96,-1.499 l -20.05,-0.2471 v 109.1 h -54.82 l -0.3511,-106.4 -2.741,-1.055 c -2.177,-0.838 -6.871,-1.11 -22.79,-1.323 l -20.05,-0.2672 v 109.1 h -54.83 z"
         style="fill:#040404;stroke-width:0.6853"
         id="path392" /></g></g></svg>
