<?xml version="1.0" encoding="UTF-8" standalone="no"?>
<svg
   width="32"
   height="32"
   id="svg2"
   version="1.1"
   sodipodi:docname="text-cql.svg"
   inkscape:version="1.2.1 (9c6d41e410, 2022-07-14)"
   xml:space="preserve"
   xmlns:inkscape="http://www.inkscape.org/namespaces/inkscape"
   xmlns:sodipodi="http://sodipodi.sourceforge.net/DTD/sodipodi-0.dtd"
   xmlns:xlink="http://www.w3.org/1999/xlink"
   xmlns="http://www.w3.org/2000/svg"
   xmlns:svg="http://www.w3.org/2000/svg"
   xmlns:rdf="http://www.w3.org/1999/02/22-rdf-syntax-ns#"
   xmlns:cc="http://creativecommons.org/ns#"
   xmlns:dc="http://purl.org/dc/elements/1.1/"><sodipodi:namedview
     pagecolor="#ffffff"
     bordercolor="#666666"
     borderopacity="1"
     objecttolerance="10"
     gridtolerance="10"
     guidetolerance="10"
     inkscape:pageopacity="0"
     inkscape:pageshadow="2"
     inkscape:window-width="1920"
     inkscape:window-height="1006"
     id="namedview47"
     showgrid="false"
     inkscape:zoom="14.75"
     inkscape:cx="-11.864407"
     inkscape:cy="22.813559"
     inkscape:window-x="0"
     inkscape:window-y="1237"
     inkscape:window-maximized="1"
     inkscape:current-layer="svg2"
     inkscape:document-rotation="0"
     inkscape:pagecheckerboard="0"
     inkscape:showpageshadow="2"
     inkscape:deskcolor="#d1d1d1" /><defs
     id="defs4"><inkscape:path-effect
       effect="fillet_chamfer"
       id="path-effect878"
       is_visible="true"
       lpeversion="1"
       satellites_param="F,0,0,1,0,2,0,10 @ F,0,0,1,0,2,0,10 @ F,0,0,1,0,2,0,10 @ F,0,0,1,0,2,0,10"
       unit="px"
       method="auto"
       mode="F"
       radius="2"
       chamfer_steps="10"
       flexible="false"
       use_knot_distance="true"
       apply_no_radius="true"
       apply_with_radius="true"
       only_selected="false"
       hide_knots="false"
       nodesatellites_param="F,0,0,1,0,2,0,10 @ F,0,0,1,0,2,0,10 @ F,0,0,1,0,2,0,10 @ F,0,0,1,0,2,0,10" /><inkscape:path-effect
       effect="fillet_chamfer"
       id="path-effect876"
       is_visible="true"
       lpeversion="1"
       satellites_param="F,0,0,1,0,2,0,10 @ F,0,0,1,0,2,0,10 @ F,0,0,1,0,2,0,10 @ F,0,0,1,0,2,0,10"
       unit="px"
       method="auto"
       mode="F"
       radius="2"
       chamfer_steps="10"
       flexible="false"
       use_knot_distance="true"
       apply_no_radius="true"
       apply_with_radius="true"
       only_selected="false"
       hide_knots="false"
       nodesatellites_param="F,0,0,1,0,2,0,10 @ F,0,0,1,0,2,0,10 @ F,0,0,1,0,2,0,10 @ F,0,0,1,0,2,0,10" /><inkscape:path-effect
       effect="fillet_chamfer"
       id="path-effect874"
       is_visible="true"
       lpeversion="1"
       satellites_param="F,0,0,1,0,2,0,10 @ F,0,0,1,0,2,0,10 @ F,0,0,1,0,2,0,10 @ F,0,0,1,0,2,0,10"
       unit="px"
       method="auto"
       mode="F"
       radius="2"
       chamfer_steps="10"
       flexible="false"
       use_knot_distance="true"
       apply_no_radius="true"
       apply_with_radius="true"
       only_selected="false"
       hide_knots="false"
       nodesatellites_param="F,0,0,1,0,2,0,10 @ F,0,0,1,0,2,0,10 @ F,0,0,1,0,2,0,10 @ F,0,0,1,0,2,0,10" /><linearGradient
       id="linearGradient902"><stop
         id="stop898"
         offset="0"
         style="stop-color:#770087;stop-opacity:1;" /><stop
         id="stop900"
         offset="1"
         style="stop-color:#452981;stop-opacity:1" /></linearGradient><linearGradient
       id="linearGradient899"><stop
         id="stop895"
         style="stop-color:#f282f1;stop-opacity:1"
         offset="0" /><stop
         id="stop897"
         style="stop-color:#a56de2;stop-opacity:1"
         offset="1" /></linearGradient><linearGradient
       id="linearGradient916"><stop
         id="stop912"
         style="stop-color:#ffffff;stop-opacity:1"
         offset="0" /><stop
         id="stop914"
         style="stop-color:#fafafa;stop-opacity:1"
         offset="1" /></linearGradient><linearGradient
       id="linearGradient3688-166-749-654"><stop
         id="stop3088"
         style="stop-color:#181818;stop-opacity:1"
         offset="0" /><stop
         id="stop3090"
         style="stop-color:#181818;stop-opacity:0"
         offset="1" /></linearGradient><linearGradient
       id="linearGradient3688-464-309-604"><stop
         id="stop3094"
         style="stop-color:#181818;stop-opacity:1"
         offset="0" /><stop
         id="stop3096"
         style="stop-color:#181818;stop-opacity:0"
         offset="1" /></linearGradient><linearGradient
       id="linearGradient3702-501-757-795"><stop
         id="stop3100"
         style="stop-color:#181818;stop-opacity:0"
         offset="0" /><stop
         id="stop3102"
         style="stop-color:#181818;stop-opacity:1"
         offset="0.5" /><stop
         id="stop3104"
         style="stop-color:#181818;stop-opacity:0"
         offset="1" /></linearGradient><radialGradient
       xlink:href="#linearGradient3688-166-749-654"
       id="radialGradient4730"
       gradientUnits="userSpaceOnUse"
       gradientTransform="matrix(3.2060542,2.6349059e-7,-8.2185947e-8,1.0000077,36.981009,15.99962)"
       cx="4.9964824"
       cy="43.5"
       fx="4.9964824"
       fy="43.5"
       r="2.5" /><radialGradient
       xlink:href="#linearGradient3688-464-309-604"
       id="radialGradient4732"
       gradientUnits="userSpaceOnUse"
       gradientTransform="matrix(3.163875,0,0,0.99999995,-29.702994,-103.00012)"
       cx="4.9929786"
       cy="43.5"
       fx="4.9929786"
       fy="43.5"
       r="2.5" /><linearGradient
       xlink:href="#linearGradient3702-501-757-795"
       id="linearGradient4734"
       gradientUnits="userSpaceOnUse"
       gradientTransform="matrix(1.3928572,0,0,0.71428561,-0.0214163,28.42862)"
       x1="25.058096"
       y1="47.027729"
       x2="25.058096"
       y2="39.999443" /><linearGradient
       gradientTransform="matrix(1.4324324,0,0,1.4362832,-7.3783796,-7.3995521)"
       gradientUnits="userSpaceOnUse"
       xlink:href="#linearGradient3924-2-2-5-8"
       id="linearGradient3381-5-4"
       y2="46.230125"
       x2="38.660378"
       y1="5.8481169"
       x1="38.660378" /><linearGradient
       id="linearGradient3924-2-2-5-8"><stop
         offset="0"
         style="stop-color:#ffffff;stop-opacity:1"
         id="stop3926-9-4-9-6" /><stop
         offset="0.06316455"
         style="stop-color:#ffffff;stop-opacity:0.23529412"
         id="stop3928-9-8-6-5" /><stop
         offset="0.95056331"
         style="stop-color:#ffffff;stop-opacity:0.15686275"
         id="stop3930-3-5-1-7" /><stop
         offset="1"
         style="stop-color:#ffffff;stop-opacity:0.39215687"
         id="stop3932-8-0-4-8" /></linearGradient><linearGradient
       gradientTransform="matrix(0.47054764,0,0,0.47457626,-60.688645,-0.1484071)"
       gradientUnits="userSpaceOnUse"
       xlink:href="#linearGradient916"
       id="linearGradient5809"
       y2="55.027"
       x2="161.97743"
       y1="10.027002"
       x1="161.97743" /><linearGradient
       y2="63.027"
       x2="161.97743"
       y1="5.1520023"
       x1="161.97743"
       gradientTransform="matrix(0.4705882,0,0,0.47457626,-60.695255,-0.1484071)"
       gradientUnits="userSpaceOnUse"
       id="linearGradient910"
       xlink:href="#linearGradient899" /><linearGradient
       gradientUnits="userSpaceOnUse"
       y2="60"
       x2="32"
       y1="0"
       x1="32"
       id="linearGradient904"
       xlink:href="#linearGradient902" /><linearGradient
       y2="63.027"
       x2="161.97743"
       y1="5.1520023"
       x1="161.97743"
       gradientTransform="matrix(0.94117646,0,0,0.94915254,-73.044014,10.801587)"
       gradientUnits="userSpaceOnUse"
       id="linearGradient910-3"
       xlink:href="#linearGradient899" /><linearGradient
       y2="63.027"
       x2="161.97743"
       y1="5.1520023"
       x1="161.97743"
       gradientTransform="matrix(0.47054764,0,0,0.47457626,-76.305129,-44.360347)"
       gradientUnits="userSpaceOnUse"
       id="linearGradient910-5"
       xlink:href="#linearGradient899" /><filter
       inkscape:collect="always"
       style="color-interpolation-filters:sRGB"
       id="filter1218"
       x="-0.00052002417"
       width="1.00104"
       y="-0.00044569657"
       height="1.0008914"><feGaussianBlur
         inkscape:collect="always"
         stdDeviation="0.0051997931"
         id="feGaussianBlur1220" /></filter></defs><metadata
     id="metadata7"><rdf:RDF><cc:Work
         rdf:about=""><dc:format>image/svg+xml</dc:format><dc:type
           rdf:resource="http://purl.org/dc/dcmitype/StillImage" /></cc:Work></rdf:RDF></metadata><path
     width="23.997931"
     height="28"
     rx="0"
     ry="0"
     x="4.0010357"
     y="2.7520487"
     id="rect4897-1"
     style="opacity:0.2;vector-effect:none;fill:#000000;fill-opacity:1;stroke:none;stroke-width:0.472558;stroke-linecap:butt;stroke-linejoin:miter;stroke-miterlimit:4;stroke-dasharray:none;stroke-dashoffset:0;stroke-opacity:1;filter:url(#filter1218)"
     inkscape:path-effect="#path-effect878"
     d="M 6.0010357,2.7520487 H 25.998966 a 2,2 45 0 1 2,2 V 28.752049 a 2,2 135 0 1 -2,2 H 6.0010357 a 2,2 45 0 1 -2,-2 V 4.7520487 a 2,2 135 0 1 2,-2 z"
     sodipodi:type="rect" /><path
     width="24"
     height="28"
     rx="0"
     ry="0"
     x="4"
     y="2"
     id="rect4897"
     style="opacity:1;vector-effect:none;fill:#eeeeee;fill-opacity:1;stroke:none;stroke-width:0.472578;stroke-linecap:butt;stroke-linejoin:miter;stroke-miterlimit:4;stroke-dasharray:none;stroke-dashoffset:0;stroke-opacity:1"
     inkscape:path-effect="#path-effect876"
     d="m 6,2 h 20 a 2,2 45 0 1 2,2 v 24 a 2,2 135 0 1 -2,2 H 6 A 2,2 45 0 1 4,28 V 4 A 2,2 135 0 1 6,2 Z"
     sodipodi:type="rect" /><path
     y="6"
     x="0"
     height="8"
     width="18"
     id="rect7379"
     style="opacity:1;fill:#d45500;fill-opacity:1;stroke:none;stroke-width:0.428245"
     inkscape:path-effect="#path-effect874"
     d="m 2,6 h 14 a 2,2 45 0 1 2,2 v 4 a 2,2 135 0 1 -2,2 L 2,14 A 2,2 45 0 1 0,12 V 8 A 2,2 135 0 1 2,6 Z"
     sodipodi:type="rect" /><g
     aria-label="CQL"
     id="text389"
     style="font-size:6px;font-family:'DejaVu Sans';-inkscape-font-specification:'DejaVu Sans';fill:#ffffff;stroke-width:0.267"><path
       d="M 6.5844727,7.8027344 V 8.4267578 Q 6.2856445,8.1484375 5.9458008,8.0107422 5.6088867,7.8730469 5.2280273,7.8730469 q -0.75,0 -1.1484375,0.4599609 -0.3984375,0.4570313 -0.3984375,1.3242188 0,0.8642574 0.3984375,1.3242184 0.3984375,0.457032 1.1484375,0.457032 0.3808594,0 0.7177735,-0.137696 0.3398437,-0.137695 0.6386719,-0.416015 v 0.618164 q -0.3105469,0.210937 -0.6591797,0.316406 -0.3457032,0.105469 -0.7324219,0.105469 -0.9931641,0 -1.5644531,-0.606446 -0.5712891,-0.609375 -0.5712891,-1.6611324 0,-1.0546875 0.5712891,-1.6611329 0.571289,-0.609375 1.5644531,-0.609375 0.3925781,0 0.7382812,0.1054688 0.3486329,0.1025391 0.6533204,0.3105469 z"
       id="path391" /><path
       d="m 9.2739258,7.8671875 q -0.6445313,0 -1.0253906,0.4804688 -0.3779297,0.4804687 -0.3779297,1.3095703 0,0.8261714 0.3779297,1.3066404 0.3808593,0.480469 1.0253906,0.480469 0.6445312,0 1.0195312,-0.480469 0.37793,-0.480469 0.37793,-1.3066404 0,-0.8291016 -0.37793,-1.3095703 -0.375,-0.4804688 -1.0195312,-0.4804688 z m 0.8291012,3.8935545 0.779297,0.852539 H 10.16748 L 9.5200195,11.913086 q -0.09668,0.0059 -0.149414,0.0088 -0.049805,0.0029 -0.09668,0.0029 -0.9228516,0 -1.4765625,-0.615235 Q 7.246582,10.691406 7.246582,9.6572266 q 0,-1.0371094 0.5507813,-1.6523438 0.5537109,-0.6181641 1.4765625,-0.6181641 0.9199222,0 1.4707032,0.6181641 0.550781,0.6152344 0.550781,1.6523438 0,0.7617184 -0.307617,1.3037114 -0.304688,0.541992 -0.884766,0.799804 z"
       id="path393" /><path
       d="m 12.221191,7.4658203 h 0.591797 v 3.8759767 h 2.129883 v 0.498047 h -2.72168 z"
       id="path395" /></g><g
     id="g454"
     transform="matrix(0.07956596,0,0,0.07956596,10.000055,17)"
     style="fill:#808080;fill-opacity:1"><g
       id="g400"
       style="fill:#808080;fill-opacity:1">
	<path
   d="m 58.263,64.946 c 3.58,-8.537 9.834,-16.039 18.456,-21.02 6.644,-3.842 14.225,-5.876 21.902,-5.876 6.376,0 12.568,1.461 18.207,4.031 V 21.677 C 116.829,9.706 92.563,0 62.641,0 32.71,0 8.448,9.706 8.448,21.677 V 43.358 C 8.436,54.75 30.372,64.061 58.263,64.946 Z m 4.366,-59.53 c 29.77,0 48.768,9.633 48.768,16.255 0,6.634 -18.998,16.258 -48.768,16.258 -29.776,0 -48.774,-9.624 -48.774,-16.258 0,-6.622 18.998,-16.255 48.774,-16.255 z M 8.429,75.883 V 54.202 c 0,10.973 20.396,20.015 46.841,21.449 -1.053,7.21 -0.311,14.699 2.375,21.799 C 30.055,96.445 8.436,87.184 8.429,75.883 Z m 86.996,49.748 c -9.109,2.771 -20.457,4.445 -32.796,4.445 -29.931,0 -54.193,-9.706 -54.193,-21.684 V 86.709 c 0,11.983 24.256,21.684 54.193,21.684 0.341,0 0.673,-0.018 1.014,-0.018 7.571,9.998 19.184,16.281 31.782,17.256 z M 131.296,63.11 C 120.908,45.123 97.83,38.936 79.836,49.325 61.849,59.713 55.663,82.788 66.044,100.775 c 10.388,17.993 33.478,24.174 51.465,13.798 18.001,-10.382 24.175,-33.471 13.787,-51.463 z M 71.449,97.657 C 62.778,82.66 67.945,63.394 82.955,54.72 c 15.01,-8.662 34.275,-3.504 42.946,11.509 8.672,15.013 3.502,34.279 -11.508,42.943 -15.016,8.678 -34.276,3.514 -42.944,-11.515 z m 68.007,36.195 -16.203,9.353 -12.477,-21.598 16.209,-9.359 z m -1.748,15.71 c -4.488,2.582 -10.199,1.06 -12.794,-3.429 l 16.216,-9.353 c 2.588,4.488 1.054,10.199 -3.422,12.782 z"
   id="path398"
   style="fill:#808080;fill-opacity:1" />
</g><g
       id="g402"
       style="fill:#808080;fill-opacity:1">
</g><g
       id="g404"
       style="fill:#808080;fill-opacity:1">
</g><g
       id="g406"
       style="fill:#808080;fill-opacity:1">
</g><g
       id="g408"
       style="fill:#808080;fill-opacity:1">
</g><g
       id="g410"
       style="fill:#808080;fill-opacity:1">
</g><g
       id="g412"
       style="fill:#808080;fill-opacity:1">
</g><g
       id="g414"
       style="fill:#808080;fill-opacity:1">
</g><g
       id="g416"
       style="fill:#808080;fill-opacity:1">
</g><g
       id="g418"
       style="fill:#808080;fill-opacity:1">
</g><g
       id="g420"
       style="fill:#808080;fill-opacity:1">
</g><g
       id="g422"
       style="fill:#808080;fill-opacity:1">
</g><g
       id="g424"
       style="fill:#808080;fill-opacity:1">
</g><g
       id="g426"
       style="fill:#808080;fill-opacity:1">
</g><g
       id="g428"
       style="fill:#808080;fill-opacity:1">
</g><g
       id="g430"
       style="fill:#808080;fill-opacity:1">
</g></g></svg>
