<?xml version="1.0" encoding="UTF-8" standalone="no"?>
<svg
   inkscape:version="1.2.1 (9c6d41e410, 2022-07-14)"
   sodipodi:docname="x-application-kdbx.svg"
   version="1.1"
   id="svg2"
   height="32"
   width="32"
   xml:space="preserve"
   xmlns:inkscape="http://www.inkscape.org/namespaces/inkscape"
   xmlns:sodipodi="http://sodipodi.sourceforge.net/DTD/sodipodi-0.dtd"
   xmlns:xlink="http://www.w3.org/1999/xlink"
   xmlns="http://www.w3.org/2000/svg"
   xmlns:svg="http://www.w3.org/2000/svg"
   xmlns:rdf="http://www.w3.org/1999/02/22-rdf-syntax-ns#"
   xmlns:cc="http://creativecommons.org/ns#"
   xmlns:dc="http://purl.org/dc/elements/1.1/"><sodipodi:namedview
     inkscape:document-rotation="0"
     inkscape:current-layer="svg2"
     inkscape:window-maximized="1"
     inkscape:window-y="1237"
     inkscape:window-x="0"
     inkscape:cy="13.762712"
     inkscape:cx="-16.813559"
     inkscape:zoom="7.375"
     showgrid="false"
     id="namedview47"
     inkscape:window-height="1006"
     inkscape:window-width="1920"
     inkscape:pageshadow="2"
     inkscape:pageopacity="0"
     guidetolerance="10"
     gridtolerance="10"
     objecttolerance="10"
     borderopacity="1"
     bordercolor="#666666"
     pagecolor="#ffffff"
     inkscape:showpageshadow="2"
     inkscape:pagecheckerboard="0"
     inkscape:deskcolor="#d1d1d1" /><defs
     id="defs4"><inkscape:path-effect
       effect="fillet_chamfer"
       id="path-effect870"
       is_visible="true"
       lpeversion="1"
       satellites_param="F,0,0,1,0,2,0,10 @ F,0,0,1,0,2,0,10 @ F,0,0,1,0,2,0,10 @ F,0,0,1,0,2,0,10"
       unit="px"
       method="auto"
       mode="F"
       radius="2"
       chamfer_steps="10"
       flexible="false"
       use_knot_distance="true"
       apply_no_radius="true"
       apply_with_radius="true"
       only_selected="false"
       hide_knots="false"
       nodesatellites_param="F,0,0,1,0,2,0,10 @ F,0,0,1,0,2,0,10 @ F,0,0,1,0,2,0,10 @ F,0,0,1,0,2,0,10" /><inkscape:path-effect
       effect="fillet_chamfer"
       id="path-effect868"
       is_visible="true"
       lpeversion="1"
       satellites_param="F,0,0,1,0,2,0,10 @ F,0,0,1,0,2,0,10 @ F,0,0,1,0,2,0,10 @ F,0,0,1,0,2,0,10"
       unit="px"
       method="auto"
       mode="F"
       radius="2"
       chamfer_steps="10"
       flexible="false"
       use_knot_distance="true"
       apply_no_radius="true"
       apply_with_radius="true"
       only_selected="false"
       hide_knots="false"
       nodesatellites_param="F,0,0,1,0,2,0,10 @ F,0,0,1,0,2,0,10 @ F,0,0,1,0,2,0,10 @ F,0,0,1,0,2,0,10" /><linearGradient
       id="linearGradient902"><stop
         style="stop-color:#770087;stop-opacity:1;"
         offset="0"
         id="stop898" /><stop
         style="stop-color:#452981;stop-opacity:1"
         offset="1"
         id="stop900" /></linearGradient><linearGradient
       id="linearGradient899"><stop
         offset="0"
         style="stop-color:#f282f1;stop-opacity:1"
         id="stop895" /><stop
         offset="1"
         style="stop-color:#a56de2;stop-opacity:1"
         id="stop897" /></linearGradient><linearGradient
       id="linearGradient916"><stop
         offset="0"
         style="stop-color:#ffffff;stop-opacity:1"
         id="stop912" /><stop
         offset="1"
         style="stop-color:#fafafa;stop-opacity:1"
         id="stop914" /></linearGradient><linearGradient
       id="linearGradient3688-166-749-654"><stop
         offset="0"
         style="stop-color:#181818;stop-opacity:1"
         id="stop3088" /><stop
         offset="1"
         style="stop-color:#181818;stop-opacity:0"
         id="stop3090" /></linearGradient><linearGradient
       id="linearGradient3688-464-309-604"><stop
         offset="0"
         style="stop-color:#181818;stop-opacity:1"
         id="stop3094" /><stop
         offset="1"
         style="stop-color:#181818;stop-opacity:0"
         id="stop3096" /></linearGradient><linearGradient
       id="linearGradient3702-501-757-795"><stop
         offset="0"
         style="stop-color:#181818;stop-opacity:0"
         id="stop3100" /><stop
         offset="0.5"
         style="stop-color:#181818;stop-opacity:1"
         id="stop3102" /><stop
         offset="1"
         style="stop-color:#181818;stop-opacity:0"
         id="stop3104" /></linearGradient><radialGradient
       r="2.5"
       fy="43.5"
       fx="4.9964824"
       cy="43.5"
       cx="4.9964824"
       gradientTransform="matrix(3.2060542,2.6349059e-7,-8.2185947e-8,1.0000077,36.981009,15.99962)"
       gradientUnits="userSpaceOnUse"
       id="radialGradient4730"
       xlink:href="#linearGradient3688-166-749-654" /><radialGradient
       r="2.5"
       fy="43.5"
       fx="4.9929786"
       cy="43.5"
       cx="4.9929786"
       gradientTransform="matrix(3.163875,0,0,0.99999995,-29.702994,-103.00012)"
       gradientUnits="userSpaceOnUse"
       id="radialGradient4732"
       xlink:href="#linearGradient3688-464-309-604" /><linearGradient
       y2="39.999443"
       x2="25.058096"
       y1="47.027729"
       x1="25.058096"
       gradientTransform="matrix(1.3928572,0,0,0.71428561,-0.0214163,28.42862)"
       gradientUnits="userSpaceOnUse"
       id="linearGradient4734"
       xlink:href="#linearGradient3702-501-757-795" /><linearGradient
       x1="38.660378"
       y1="5.8481169"
       x2="38.660378"
       y2="46.230125"
       id="linearGradient3381-5-4"
       xlink:href="#linearGradient3924-2-2-5-8"
       gradientUnits="userSpaceOnUse"
       gradientTransform="matrix(1.4324324,0,0,1.4362832,-7.3783796,-7.3995521)" /><linearGradient
       id="linearGradient3924-2-2-5-8"><stop
         id="stop3926-9-4-9-6"
         style="stop-color:#ffffff;stop-opacity:1"
         offset="0" /><stop
         id="stop3928-9-8-6-5"
         style="stop-color:#ffffff;stop-opacity:0.23529412"
         offset="0.06316455" /><stop
         id="stop3930-3-5-1-7"
         style="stop-color:#ffffff;stop-opacity:0.15686275"
         offset="0.95056331" /><stop
         id="stop3932-8-0-4-8"
         style="stop-color:#ffffff;stop-opacity:0.39215687"
         offset="1" /></linearGradient><linearGradient
       x1="161.97743"
       y1="10.027002"
       x2="161.97743"
       y2="55.027"
       id="linearGradient5809"
       xlink:href="#linearGradient916"
       gradientUnits="userSpaceOnUse"
       gradientTransform="matrix(0.47054764,0,0,0.47457626,-60.688645,-0.1484071)" /><linearGradient
       xlink:href="#linearGradient899"
       id="linearGradient910"
       gradientUnits="userSpaceOnUse"
       gradientTransform="matrix(0.4705882,0,0,0.47457626,-60.695255,-0.1484071)"
       x1="161.97743"
       y1="5.1520023"
       x2="161.97743"
       y2="63.027" /><linearGradient
       xlink:href="#linearGradient902"
       id="linearGradient904"
       x1="32"
       y1="0"
       x2="32"
       y2="60"
       gradientUnits="userSpaceOnUse" /><linearGradient
       xlink:href="#linearGradient899"
       id="linearGradient910-3"
       gradientUnits="userSpaceOnUse"
       gradientTransform="matrix(0.94117646,0,0,0.94915254,-73.044014,10.801587)"
       x1="161.97743"
       y1="5.1520023"
       x2="161.97743"
       y2="63.027" /><linearGradient
       xlink:href="#linearGradient899"
       id="linearGradient910-5"
       gradientUnits="userSpaceOnUse"
       gradientTransform="matrix(0.47054764,0,0,0.47457626,-76.305129,-44.360347)"
       x1="161.97743"
       y1="5.1520023"
       x2="161.97743"
       y2="63.027" /><filter
       height="1.0008914"
       y="-0.00044569657"
       width="1.00104"
       x="-0.00052002417"
       id="filter1218"
       style="color-interpolation-filters:sRGB"
       inkscape:collect="always"><feGaussianBlur
         id="feGaussianBlur1220"
         stdDeviation="0.0051997931"
         inkscape:collect="always" /></filter></defs><metadata
     id="metadata7"><rdf:RDF><cc:Work
         rdf:about=""><dc:format>image/svg+xml</dc:format><dc:type
           rdf:resource="http://purl.org/dc/dcmitype/StillImage" /></cc:Work></rdf:RDF></metadata><path
     style="opacity:0.2;vector-effect:none;fill:#000000;fill-opacity:1;stroke:none;stroke-width:0.472558;stroke-linecap:butt;stroke-linejoin:miter;stroke-miterlimit:4;stroke-dasharray:none;stroke-dashoffset:0;stroke-opacity:1;filter:url(#filter1218)"
     id="rect4897-1"
     y="2.7520487"
     x="4.0010357"
     ry="0"
     rx="0"
     height="28"
     width="23.997931"
     inkscape:path-effect="#path-effect870"
     d="M 6.0010357,2.7520487 H 25.998966 a 2,2 45 0 1 2,2 V 28.752049 a 2,2 135 0 1 -2,2 H 6.0010357 a 2,2 45 0 1 -2,-2 V 4.7520487 a 2,2 135 0 1 2,-2 z"
     sodipodi:type="rect" /><path
     style="opacity:1;vector-effect:none;fill:#eeeeee;fill-opacity:1;stroke:none;stroke-width:0.472578;stroke-linecap:butt;stroke-linejoin:miter;stroke-miterlimit:4;stroke-dasharray:none;stroke-dashoffset:0;stroke-opacity:1"
     id="rect4897"
     y="2"
     x="4"
     ry="0"
     rx="0"
     height="28"
     width="24"
     inkscape:path-effect="#path-effect868"
     d="m 6,2 h 20 a 2,2 45 0 1 2,2 v 24 a 2,2 135 0 1 -2,2 H 6 A 2,2 45 0 1 4,28 V 4 A 2,2 135 0 1 6,2 Z"
     sodipodi:type="rect" /><path
     d="M 15.006667,14.675333 V 12.866 c 0,-0.204 0.165333,-0.369333 0.369333,-0.369333 h 1.274 c 0.204,0 0.369333,0.165333 0.369333,0.369333 v 3.312 c 0,0.05067 -0.02533,0.08933 -0.05067,0.127333 L 16.649996,16.624 c -0.07667,0.07667 -0.07667,0.191333 0,0.254667 l 0.318667,0.318666 c 0.038,0.038 0.05067,0.07667 0.05067,0.127334 v 1.808666 c 0,0.204 -0.165333,0.369334 -0.369333,0.369334 h -1.274 c -0.204,0 -0.369333,-0.165334 -0.369333,-0.369334 v -3.312 c 0,-0.05067 0.02533,-0.08933 0.05067,-0.127333 l 0.318667,-0.318667 c 0.07667,-0.07667 0.07667,-0.191333 0,-0.254666 L 15.057337,14.802 c -0.038,-0.038 -0.05067,-0.076 -0.05067,-0.126667 z M 20.751333,16 c 0,-2.624 -2.127333,-4.751333 -4.751333,-4.751333 -2.624,0 -4.751333,2.127333 -4.751333,4.751333 0,2.624 2.127333,4.751333 4.751333,4.751333 2.624,0 4.751333,-2.127333 4.751333,-4.751333 z m 1.503334,0 c 0,3.452 -2.802667,6.242 -6.242,6.242 -3.452,0 -6.2419999,-2.802667 -6.2419999,-6.242 0,-3.452 2.8026659,-6.2419999 6.2419999,-6.2419999 3.439333,0 6.242,2.7899999 6.242,6.2419999 z M 8.5093331,16 c 0,4.14 3.3499999,7.490667 7.4906669,7.490667 C 20.140667,23.490667 23.490667,20.14 23.490667,16 23.490667,11.86 20.14,8.5093331 16,8.5093331 11.86,8.5093331 8.5093331,11.86 8.5093331,16 Z m -0.509333,0 c 0,-4.420667 3.5793329,-7.9999999 7.9999999,-7.9999999 4.420667,0 8,3.5793329 8,7.9999999 0,4.420667 -3.579333,8 -8,8 -4.420667,0 -7.9999999,-3.579333 -7.9999999,-8 z"
     id="path957"
     style="fill:#777777;fill-opacity:1;stroke-width:0.666667" /></svg>
