<?xml version="1.0" encoding="UTF-8" standalone="no"?>
<!-- Created with Inkscape (http://www.inkscape.org/) -->

<svg
   id="svg7384"
   height="16"
   width="16"
   version="1.1"
   sodipodi:docname="battery-good.svg"
   inkscape:version="1.2.1 (9c6d41e410, 2022-07-14)"
   xmlns:inkscape="http://www.inkscape.org/namespaces/inkscape"
   xmlns:sodipodi="http://sodipodi.sourceforge.net/DTD/sodipodi-0.dtd"
   xmlns="http://www.w3.org/2000/svg"
   xmlns:svg="http://www.w3.org/2000/svg"
   xmlns:rdf="http://www.w3.org/1999/02/22-rdf-syntax-ns#"
   xmlns:cc="http://creativecommons.org/ns#"
   xmlns:dc="http://purl.org/dc/elements/1.1/">
  <defs
     id="defs12" />
  <sodipodi:namedview
     pagecolor="#ffffff"
     bordercolor="#666666"
     borderopacity="1"
     objecttolerance="10"
     gridtolerance="10"
     guidetolerance="10"
     inkscape:pageopacity="0"
     inkscape:pageshadow="2"
     inkscape:window-width="1366"
     inkscape:window-height="704"
     id="namedview10"
     showgrid="true"
     inkscape:zoom="20.85965"
     inkscape:cx="-23.873843"
     inkscape:cy="4.2426407"
     inkscape:window-x="0"
     inkscape:window-y="30"
     inkscape:window-maximized="1"
     inkscape:current-layer="layer9"
     inkscape:showpageshadow="2"
     inkscape:pagecheckerboard="0"
     inkscape:deskcolor="#d1d1d1">
    <inkscape:grid
       type="xygrid"
       id="grid819" />
  </sodipodi:namedview>
  <metadata
     id="metadata90">
    <rdf:RDF>
      <cc:Work
         rdf:about="">
        <dc:format>image/svg+xml</dc:format>
        <dc:type
           rdf:resource="http://purl.org/dc/dcmitype/StillImage" />
        <dc:title>Gnome Symbolic Icon Theme</dc:title>
      </cc:Work>
    </rdf:RDF>
  </metadata>
  <title
     id="title9167">Gnome Symbolic Icon Theme</title>
  <g
     id="layer9"
     transform="rotate(90,137.0003,95.998825)">
    <path
       id="path2930"
       style="color:#bebebe;text-indent:0;text-transform:none;fill:#dfdfdf;fill-opacity:1"
       d="m 46.470175,217.0003 c -0.49033,0 -0.79607,0.22846 -1.0312,0.46875 -0.23518,0.24029 -0.4375,0.52725 -0.4375,1 v 0.53 h -1 -1 v 1 12 1 h 1 10 1 v -1 -12 -1 h -1 -1 v -0.375 -0.0312 -0.0312 c -0.02393,-0.4306 -0.17023,-0.72105 -0.40625,-1 -0.22374,-0.26444 -0.6267,-0.52931 -1.1562,-0.53125 v -0.0312 h -0.0625 -4.9062 z m 4.531,2 v 0 1 1 h 1 1 v 10 h -8 v -10 h 1 5 v -1 z"
       inkscape:connector-curvature="0"
       sodipodi:nodetypes="ccscccccccccccccccccccccccccccccccccccc" />
    <rect
       id="rect4227"
       style="color:#000000;fill:#444444;fill-opacity:1"
       transform="matrix(0,1,1,0,0,0)"
       height="6"
       width="2"
       y="46.001175"
       x="225.00031" />
    <rect
       id="rect4229"
       style="color:#000000;fill:#dfdfdf;fill-opacity:1;stroke-width:1.58113885"
       transform="matrix(0,1,1,0,0,0)"
       height="6"
       width="5"
       y="46.001175"
       x="225.00031" />
  </g>
</svg>
