<?xml version="1.0" encoding="UTF-8" standalone="no"?>
<svg
   width="32"
   height="32"
   version="1.1"
   viewBox="0 0 24 24"
   id="svg14"
   sodipodi:docname="utilities-x-terminal.svg"
   inkscape:version="1.1 (c68e22c387, 2021-05-23)"
   xmlns:inkscape="http://www.inkscape.org/namespaces/inkscape"
   xmlns:sodipodi="http://sodipodi.sourceforge.net/DTD/sodipodi-0.dtd"
   xmlns="http://www.w3.org/2000/svg"
   xmlns:svg="http://www.w3.org/2000/svg"
   xmlns:rdf="http://www.w3.org/1999/02/22-rdf-syntax-ns#"
   xmlns:cc="http://creativecommons.org/ns#"
   xmlns:dc="http://purl.org/dc/elements/1.1/">
  <metadata
     id="metadata20">
    <rdf:RDF>
      <cc:Work
         rdf:about="">
        <dc:format>image/svg+xml</dc:format>
        <dc:type
           rdf:resource="http://purl.org/dc/dcmitype/StillImage" />
      </cc:Work>
    </rdf:RDF>
  </metadata>
  <defs
     id="defs18" />
  <sodipodi:namedview
     pagecolor="#ffffff"
     bordercolor="#666666"
     borderopacity="1"
     objecttolerance="10"
     gridtolerance="10"
     guidetolerance="10"
     inkscape:pageopacity="0"
     inkscape:pageshadow="2"
     inkscape:window-width="1920"
     inkscape:window-height="1002"
     id="namedview16"
     showgrid="false"
     inkscape:zoom="11.070641"
     inkscape:cx="24.750148"
     inkscape:cy="13.730009"
     inkscape:window-x="0"
     inkscape:window-y="0"
     inkscape:window-maximized="1"
     inkscape:current-layer="svg14"
     showguides="false"
     inkscape:pagecheckerboard="0" />
  <path
     d="M 2.4301115,2.25 H 21.570124 C 22.08374,2.25 22.5,2.78038 22.5,3.43474 v 18.63021 c 0,0.6544 -0.416272,1.18505 -0.929876,1.18505 H 2.4301115 c -0.513616,0 -0.930111,-0.53068 -0.930111,-1.18505 V 3.43474 c 0,-0.65438 0.416518,-1.18474 0.930111,-1.18474 z"
     id="path6-4-2"
     style="opacity:0.25;fill:#000000;fill-opacity:1;fill-rule:evenodd;stroke:none;stroke-width:0.91556;stroke-linejoin:round;stroke-miterlimit:4;stroke-dasharray:none"
     inkscape:connector-curvature="0" />
  <path
     d="M 2.4301114,1.5 H 21.570125 C 22.083741,1.5 22.5,2.03038 22.5,2.68474 V 21.31495 C 22.5,21.96935 22.083728,22.5 21.570125,22.5 H 2.4301114 c -0.513616,0 -0.930111,-0.53068 -0.930111,-1.18505 V 2.68474 C 1.5000004,2.03036 1.9165184,1.5 2.4301114,1.5 Z"
     id="path6-4"
     style="fill:#cfd8dc;fill-opacity:1;fill-rule:evenodd;stroke:none;stroke-width:0.91556;stroke-linejoin:round;stroke-miterlimit:4;stroke-dasharray:none"
     inkscape:connector-curvature="0" />
  <path
     d="M 3.7972375,3 H 20.202964 C 20.643207,3 21,3.45462 21,4.0155 V 19.98425 C 21,20.54515 20.643195,21 20.202964,21 H 3.7972375 C 3.3569953,21 3,20.54514 3,19.98425 V 4.0155 C 3,3.4546 3.3570154,3 3.7972375,3 Z"
     id="path6"
     style="fill:#4f4f4f;fill-opacity:1;fill-rule:evenodd;stroke:none;stroke-width:0.784766;stroke-linejoin:round;stroke-miterlimit:4;stroke-dasharray:none"
     inkscape:connector-curvature="0" />
  <path
     style="opacity:0.1;fill:#ffffff;stroke-width:0.75"
     d="m 30.284109,2.6661917 c -0.62325,0 -1.125,0.50175 -1.125,1.125 v 0.75 c 0,-0.62325 0.50175,-1.125 1.125,-1.125 h 18.75 c 0.62325,0 1.125,0.50175 1.125,1.125 v -0.75 c 0,-0.62325 -0.50175,-1.125 -1.125,-1.125 z"
     id="path1016" />
  <g
     id="g8454"
     transform="matrix(0.74837551,0,0,0.74837551,-18.073113,1.4516538)">
    <path
       style="opacity:0.2;stroke-width:0.75"
       d="m 32.159109,5.6661917 v 0.75 h -0.375 c -0.62325,0 -1.125,0.50175 -1.125,1.125 0,0.62325 0.50175,1.125 1.125,1.125 h 0.375 v 0.75 h -1.43115 c 0.1545,0.4365 0.5655,0.7500003 1.05615,0.7500003 h 0.375 v 0.75 h 0.75 v -0.75 h 0.375 c 0.62325,0 1.125,-0.5017503 1.125,-1.1250003 0,-0.62325 -0.50175,-1.125 -1.125,-1.125 h -0.375 v -0.75 h 1.43115 c -0.1545,-0.4365 -0.5655,-0.75 -1.056,-0.75 h -0.375 v -0.75 h -0.75 z m -0.375,1.5 h 0.375 v 0.75 h -0.375 c -0.20775,0 -0.375,-0.16725 -0.375,-0.375 0,-0.20775 0.16725,-0.375 0.375,-0.375 z m 1.125,1.5 h 0.375 c 0.20775,0 0.375,0.16725 0.375,0.375 0,0.20775 -0.167475,0.38475 -0.375,0.375 h -0.375 z m 3,1.5000003 v 0.75 h 4.5 v -0.75 z"
       id="path1018" />
    <path
       style="fill:#58ff00;stroke-width:0.75"
       d="m 32.159109,4.9161917 v 0.75 h -0.375 c -0.62325,0 -1.125,0.50175 -1.125,1.125 0,0.62325 0.50175,1.125 1.125,1.125 h 0.375 v 0.75 h -1.43115 c 0.1545,0.4365 0.5655,0.75 1.05615,0.75 h 0.375 v 0.7500003 h 0.75 V 9.4161917 h 0.375 c 0.62325,0 1.125,-0.50175 1.125,-1.125 0,-0.62325 -0.50175,-1.125 -1.125,-1.125 h -0.375 v -0.75 h 1.43115 c -0.1545,-0.4365 -0.5655,-0.75 -1.056,-0.75 h -0.375 v -0.75 h -0.75 z m -0.375,1.5 h 0.375 v 0.75 h -0.375 c -0.20775,0 -0.375,-0.16725 -0.375,-0.375 0,-0.20775 0.16725,-0.375 0.375,-0.375 z m 1.125,1.5 h 0.375 c 0.20775,0 0.375,0.16725 0.375,0.375 0,0.20775 -0.167475,0.38475 -0.375,0.375 h -0.375 z m 3,1.5 v 0.7500003 h 4.5 V 9.4161917 Z"
       id="path1020" />
  </g>
</svg>
