<?xml version="1.0" encoding="UTF-8" standalone="no"?>
<svg
   width="24"
   height="24"
   viewBox="0 0 24 24"
   version="1.1"
   id="svg7"
   sodipodi:docname="rating-unrated.svg"
   xml:space="preserve"
   inkscape:version="1.2.1 (9c6d41e410, 2022-07-14)"
   xmlns:inkscape="http://www.inkscape.org/namespaces/inkscape"
   xmlns:sodipodi="http://sodipodi.sourceforge.net/DTD/sodipodi-0.dtd"
   xmlns="http://www.w3.org/2000/svg"
   xmlns:svg="http://www.w3.org/2000/svg"><sodipodi:namedview
     id="namedview9"
     pagecolor="#ffffff"
     bordercolor="#000000"
     borderopacity="0.25"
     inkscape:showpageshadow="2"
     inkscape:pageopacity="0.0"
     inkscape:pagecheckerboard="0"
     inkscape:deskcolor="#d1d1d1"
     showgrid="false"
     inkscape:zoom="42.791667"
     inkscape:cx="11.988315"
     inkscape:cy="12.023369"
     inkscape:current-layer="svg7" /><defs
     id="defs3"><style
       id="current-color-scheme"
       type="text/css">
   .ColorScheme-Text { color:#444444; } .ColorScheme-Highlight { color:#4285f4; }
  </style><style
       id="current-color-scheme-535"
       type="text/css">
   .ColorScheme-Text { color:#444444; } .ColorScheme-Highlight { color:#4285f4; }
  </style><style
       id="current-color-scheme-53"
       type="text/css">
   .ColorScheme-Text { color:#444444; } .ColorScheme-Highlight { color:#4285f4; }
  </style><style
       id="current-color-scheme-5"
       type="text/css">
   .ColorScheme-Text { color:#6e6e6e; } .ColorScheme-Highlight { color:#4285f4; }
  </style></defs><path
     style="opacity:0.3;fill:#444444;fill-opacity:1"
     class="ColorScheme-Text"
     d="m 12.000003,3.9999987 c -0.721185,0.010036 -1.235136,0.4317718 -1.476508,1.1319414 l 0.0078,-0.031334 -1.1327713,3.9132593 h -3.820173 c -0.0083,-1.301e-4 -0.01706,-1.301e-4 -0.02539,0 -0.45633,0.0144 -0.8682601,0.2203755 -1.1581611,0.5640123 -0.6269675,0.7007153 -0.4934315,1.8039653 0.302724,2.3265513 l 3.0037991,2.138547 -1.165973,3.985296 c -0.0013,0.0039 -0.0027,0.0078 -0.0039,0.01175 -0.178148,0.569792 -0.01062,1.157308 0.437484,1.558867 0.0032,0.003 0.0084,0.0049 0.01172,0.0078 0.538485,0.466081 1.294158,0.524829 1.902274,0.139045 0.01157,-0.0073 0.024,-0.01366 0.03515,-0.02155 L 12,17.556303 l 3.081917,2.167923 c 0.01115,0.0079 0.0236,0.01426 0.03516,0.02155 0.608116,0.385784 1.363788,0.327036 1.902273,-0.139045 0.0033,-0.0029 0.0085,-0.0048 0.01172,-0.0078 0.448108,-0.401569 0.615632,-0.989075 0.437484,-1.558867 -0.0012,-0.0039 -0.0026,-0.0078 -0.0039,-0.01175 l -1.165973,-3.985296 3.003796,-2.138547 C 20.098632,11.381885 20.232168,10.278635 19.605201,9.5779198 19.3153,9.2342828 18.903368,9.028309 18.44704,9.0139074 c -0.0083,-1.302e-4 -0.01709,-1.302e-4 -0.02539,0 h -3.820173 l -1.13277,-3.9132593 0.0078,0.031334 C 13.23514,4.4317705 12.721189,4.0100348 12.000003,3.9999987 Z"
     id="path5-3" /></svg>
