<?xml version="1.0" encoding="UTF-8" standalone="no"?>
<svg
   width="16"
   height="16"
   viewBox="0 0 16 16"
   version="1.1"
   id="svg25430"
   sodipodi:docname="application-exit.svg"
   inkscape:version="1.2.1 (9c6d41e410, 2022-07-14)"
   xmlns:inkscape="http://www.inkscape.org/namespaces/inkscape"
   xmlns:sodipodi="http://sodipodi.sourceforge.net/DTD/sodipodi-0.dtd"
   xmlns="http://www.w3.org/2000/svg"
   xmlns:svg="http://www.w3.org/2000/svg">
  <sodipodi:namedview
     id="namedview25432"
     pagecolor="#ffffff"
     bordercolor="#000000"
     borderopacity="0.25"
     inkscape:showpageshadow="2"
     inkscape:pageopacity="0.0"
     inkscape:pagecheckerboard="0"
     inkscape:deskcolor="#d1d1d1"
     showgrid="false"
     inkscape:zoom="64.1875"
     inkscape:cx="7.3067186"
     inkscape:cy="8.0155794"
     inkscape:current-layer="svg25430" />
  <defs
     id="defs25426">
    <style
       id="current-color-scheme"
       type="text/css">
   .ColorScheme-Text { color:#444444; } .ColorScheme-Highlight { color:#4285f4; }
  </style>
  </defs>
  <path
     style="fill:#dfdfdf;fill-opacity:1"
     class="ColorScheme-Text"
     d="M 3 1 C 1.892 0.99998 1 1.892 1 3 L 1 5.9941406 L 3 6 L 3 3 L 13 3 L 13 13 L 3 13 L 3 10 L 1 9.9941406 L 1 13 C 1 14.108 1.892 15 3 15 L 13 15 C 14.108 15 15 14.108 15 13 L 15 3 C 15 1.892 14.108 1 13 1 L 3 1 z M 7.2109375 4 L 5.8242188 5.3867188 L 7.4589844 7.0214844 L -0.001953125 7 L -0.001953125 9 L 7.4589844 9.0214844 L 5.8242188 10.654297 L 7.2109375 12.041016 L 11.210938 8 L 7.2109375 4 z"
     id="path25428" />
</svg>
