<?xml version="1.0" encoding="UTF-8" standalone="no"?>
<svg
   width="16"
   height="16"
   version="1.1"
   id="svg4"
   sodipodi:docname="network-wired-no-route-symbolic.svg"
   xml:space="preserve"
   inkscape:version="1.2.1 (9c6d41e410, 2022-07-14)"
   xmlns:inkscape="http://www.inkscape.org/namespaces/inkscape"
   xmlns:sodipodi="http://sodipodi.sourceforge.net/DTD/sodipodi-0.dtd"
   xmlns="http://www.w3.org/2000/svg"
   xmlns:svg="http://www.w3.org/2000/svg"><defs
     id="defs8" /><sodipodi:namedview
     id="namedview6"
     pagecolor="#ffffff"
     bordercolor="#000000"
     borderopacity="0.25"
     inkscape:showpageshadow="2"
     inkscape:pageopacity="0.0"
     inkscape:pagecheckerboard="0"
     inkscape:deskcolor="#d1d1d1"
     showgrid="false"
     inkscape:zoom="22.693708"
     inkscape:cx="2.3354491"
     inkscape:cy="6.014883"
     inkscape:current-layer="svg4" /><path
     id="path2"
     style="fill:#444444"
     d="M 2 2 C 2 2 1 2.000001 1 3 L 1 12 C 1 12.999999 2 13 2 13 L 4 13 L 5 14 L 11 14 L 12 13 L 14 13 C 14 13 15 13.129999 15 12 L 15 3 C 15 2.000001 14 2 14 2 L 2 2 z M 7.9902344 4 C 8.0341398 3.9999816 8.0792819 4.0015617 8.1230469 4.0039062 C 8.704496 4.0320414 9.268994 4.2729001 9.6972656 4.7011719 C 10.381875 5.3857819 10.5888 6.4223491 10.216797 7.3164062 C 9.9542065 7.9541242 9.4291216 8.4292197 8.8007812 8.6542969 L 8.8007812 9.5996094 L 7.2011719 9.5996094 L 7.2011719 7.9980469 C 7.2011719 7.5572709 7.559224 7.1992188 8 7.1992188 C 8.3251115 7.1992188 8.6171446 7.005181 8.7421875 6.7050781 C 8.8641045 6.4049752 8.797736 6.0633601 8.5664062 5.8320312 C 8.3350774 5.6007011 7.9954155 5.5351134 7.6953125 5.6601562 C 7.3952096 5.7820733 7.2011719 6.073326 7.2011719 6.3984375 L 5.5996094 6.3984375 C 5.5996094 5.4293547 6.187975 4.5505168 7.0820312 4.1816406 C 7.37471 4.0585517 7.6828962 4.0001285 7.9902344 4 z M 8 10.400391 C 8.440776 10.400391 8.8007812 10.758442 8.8007812 11.199219 C 8.8007812 11.639994 8.440776 12 8 12 C 7.559224 12 7.2011719 11.639994 7.2011719 11.199219 C 7.2011719 10.758442 7.559224 10.400391 8 10.400391 z " /></svg>
